# MagicaVoxel @ Ephtracy

# group
o 

# material
mtllib fly_agaric.mtl
usemtl palette

# normals
vn -1 0 0
vn 1 0 0
vn 0 0 1
vn 0 0 -1
vn 0 -1 0
vn 0 1 0

# texcoords
vt 0.0332031 0.5
vt 0.115234 0.5
vt 0.958984 0.5

# verts
v -0.4 0.4 -0.1
v -0.4 0.4 -0.3
v -0.4 0.4 -0.4
v -0.4 0.5 -0.1
v -0.4 0.5 -0.3
v -0.4 0.5 -0.4
v -0.3 0.4 2.23517e-08
v -0.3 0.4 -0.1
v -0.3 0.4 -0.4
v -0.3 0.4 -0.5
v -0.3 0.5 2.23517e-08
v -0.3 0.5 -0.1
v -0.3 0.5 -0.2
v -0.3 0.5 -0.3
v -0.3 0.5 -0.4
v -0.3 0.5 -0.5
v -0.3 0.6 -0.1
v -0.3 0.6 -0.2
v -0.3 0.6 -0.4
v -0.2 0 -0.2
v -0.2 0 -0.3
v -0.2 0.4 -0.2
v -0.2 0.4 -0.3
v -0.2 0.6 -0.2
v -0.2 0.6 -0.3
v -0.2 0.7 -0.2
v -0.2 0.7 -0.3
v -0.1 0 -0.2
v -0.1 0 -0.3
v -0.1 0.4 -0.2
v -0.1 0.4 -0.3
v -0.1 0.6 -0.2
v -0.1 0.6 -0.3
v -0.1 0.7 -0.2
v -0.1 0.7 -0.3
v 0 0.4 2.23517e-08
v 0 0.4 -0.1
v 0 0.4 -0.4
v 0 0.4 -0.5
v 0 0.5 2.23517e-08
v 0 0.5 -0.1
v 0 0.5 -0.2
v 0 0.5 -0.3
v 0 0.5 -0.4
v 0 0.5 -0.5
v 0 0.6 -0.1
v 0 0.6 -0.2
v 0 0.6 -0.3
v 0 0.6 -0.4
v 0.1 0.4 -0.1
v 0.1 0.4 -0.4
v 0.1 0.5 -0.1
v 0.1 0.5 -0.4
v -0.3 0.4 2.23517e-08
v -0.3 0.5 2.23517e-08
v -0.2 0.4 2.23517e-08
v -0.2 0.5 2.23517e-08
v -0.1 0.4 2.23517e-08
v -0.1 0.5 2.23517e-08
v 0 0.4 2.23517e-08
v 0 0.5 2.23517e-08
v -0.4 0.4 -0.1
v -0.4 0.5 -0.1
v -0.3 0.4 -0.1
v -0.3 0.5 -0.1
v -0.3 0.6 -0.1
v -0.2 0.5 -0.1
v -0.2 0.6 -0.1
v -0.1 0.5 -0.1
v 0 0.4 -0.1
v 0 0.5 -0.1
v 0 0.6 -0.1
v 0.1 0.4 -0.1
v 0.1 0.5 -0.1
v -0.2 0 -0.2
v -0.2 0.4 -0.2
v -0.2 0.6 -0.2
v -0.2 0.7 -0.2
v -0.1 0 -0.2
v -0.1 0.4 -0.2
v -0.1 0.6 -0.2
v -0.1 0.7 -0.2
v -0.2 0 -0.3
v -0.2 0.4 -0.3
v -0.2 0.6 -0.3
v -0.2 0.7 -0.3
v -0.1 0 -0.3
v -0.1 0.4 -0.3
v -0.1 0.6 -0.3
v -0.1 0.7 -0.3
v -0.4 0.4 -0.4
v -0.4 0.5 -0.4
v -0.3 0.4 -0.4
v -0.3 0.5 -0.4
v -0.3 0.6 -0.4
v -0.2 0.5 -0.4
v -0.1 0.5 -0.4
v 0 0.4 -0.4
v 0 0.5 -0.4
v 0 0.6 -0.4
v 0.1 0.4 -0.4
v 0.1 0.5 -0.4
v -0.3 0.4 -0.5
v -0.3 0.5 -0.5
v -0.2 0.4 -0.5
v -0.2 0.5 -0.5
v -0.1 0.4 -0.5
v -0.1 0.5 -0.5
v 0 0.4 -0.5
v 0 0.5 -0.5
v -0.2 0 -0.2
v -0.1 0 -0.2
v -0.2 0 -0.3
v -0.1 0 -0.3
v -0.3 0.4 2.23517e-08
v -0.2 0.4 2.23517e-08
v -0.1 0.4 2.23517e-08
v 0 0.4 2.23517e-08
v -0.4 0.4 -0.1
v -0.3 0.4 -0.1
v -0.2 0.4 -0.1
v -0.1 0.4 -0.1
v 0 0.4 -0.1
v 0.1 0.4 -0.1
v -0.2 0.4 -0.2
v -0.1 0.4 -0.2
v -0.4 0.4 -0.3
v -0.3 0.4 -0.3
v -0.2 0.4 -0.3
v -0.1 0.4 -0.3
v -0.4 0.4 -0.4
v -0.3 0.4 -0.4
v -0.2 0.4 -0.4
v -0.1 0.4 -0.4
v 0 0.4 -0.4
v 0.1 0.4 -0.4
v -0.3 0.4 -0.5
v -0.2 0.4 -0.5
v -0.1 0.4 -0.5
v 0 0.4 -0.5
v -0.3 0.5 2.23517e-08
v -0.2 0.5 2.23517e-08
v -0.1 0.5 2.23517e-08
v 0 0.5 2.23517e-08
v -0.4 0.5 -0.1
v -0.3 0.5 -0.1
v -0.2 0.5 -0.1
v -0.1 0.5 -0.1
v 0 0.5 -0.1
v 0.1 0.5 -0.1
v -0.3 0.5 -0.2
v 0 0.5 -0.2
v -0.4 0.5 -0.3
v -0.3 0.5 -0.3
v 0 0.5 -0.3
v -0.4 0.5 -0.4
v -0.3 0.5 -0.4
v -0.2 0.5 -0.4
v -0.1 0.5 -0.4
v 0 0.5 -0.4
v 0.1 0.5 -0.4
v -0.3 0.5 -0.5
v -0.2 0.5 -0.5
v -0.1 0.5 -0.5
v 0 0.5 -0.5
v -0.3 0.6 -0.1
v -0.2 0.6 -0.1
v 0 0.6 -0.1
v -0.3 0.6 -0.2
v -0.2 0.6 -0.2
v -0.1 0.6 -0.2
v 0 0.6 -0.2
v -0.2 0.6 -0.3
v -0.1 0.6 -0.3
v 0 0.6 -0.3
v -0.3 0.6 -0.4
v 0 0.6 -0.4
v -0.2 0.7 -0.2
v -0.1 0.7 -0.2
v -0.2 0.7 -0.3
v -0.1 0.7 -0.3

# faces
f 4/2/1 2/2/1 1/2/1
f 5/3/1 3/3/1 2/3/1
f 5/2/1 2/2/1 4/2/1
f 6/3/1 3/3/1 5/3/1
f 11/2/1 8/2/1 7/2/1
f 12/2/1 8/2/1 11/2/1
f 15/2/1 10/2/1 9/2/1
f 16/2/1 10/2/1 15/2/1
f 17/3/1 13/3/1 12/3/1
f 18/2/1 14/2/1 13/2/1
f 18/3/1 13/3/1 17/3/1
f 18/2/1 15/2/1 14/2/1
f 19/2/1 15/2/1 18/2/1
f 22/1/1 21/1/1 20/1/1
f 23/1/1 21/1/1 22/1/1
f 26/2/1 25/2/1 24/2/1
f 27/2/1 25/2/1 26/2/1
f 28/1/2 29/1/2 30/1/2
f 30/1/2 29/1/2 31/1/2
f 32/2/2 33/2/2 34/2/2
f 34/2/2 33/2/2 35/2/2
f 36/2/2 37/2/2 40/2/2
f 40/2/2 37/2/2 41/2/2
f 38/2/2 39/2/2 44/2/2
f 44/2/2 39/2/2 45/2/2
f 41/2/2 42/2/2 46/2/2
f 42/3/2 43/3/2 47/3/2
f 46/2/2 42/2/2 47/2/2
f 43/2/2 44/2/2 48/2/2
f 47/3/2 43/3/2 48/3/2
f 48/2/2 44/2/2 49/2/2
f 50/2/2 51/2/2 52/2/2
f 52/2/2 51/2/2 53/2/2
f 56/2/3 55/2/3 54/2/3
f 57/2/3 55/2/3 56/2/3
f 58/3/3 57/3/3 56/3/3
f 59/3/3 57/3/3 58/3/3
f 60/2/3 59/2/3 58/2/3
f 61/2/3 59/2/3 60/2/3
f 64/2/3 63/2/3 62/2/3
f 65/2/3 63/2/3 64/2/3
f 67/3/3 66/3/3 65/3/3
f 68/3/3 66/3/3 67/3/3
f 69/2/3 68/2/3 67/2/3
f 71/2/3 68/2/3 69/2/3
f 72/2/3 68/2/3 71/2/3
f 73/2/3 71/2/3 70/2/3
f 74/2/3 71/2/3 73/2/3
f 79/1/3 76/1/3 75/1/3
f 80/1/3 76/1/3 79/1/3
f 81/2/3 78/2/3 77/2/3
f 82/2/3 78/2/3 81/2/3
f 83/1/4 84/1/4 87/1/4
f 87/1/4 84/1/4 88/1/4
f 85/2/4 86/2/4 89/2/4
f 89/2/4 86/2/4 90/2/4
f 91/3/4 92/3/4 93/3/4
f 93/3/4 92/3/4 94/3/4
f 94/2/4 95/2/4 96/2/4
f 96/2/4 95/2/4 97/2/4
f 97/2/4 95/2/4 99/2/4
f 99/2/4 95/2/4 100/2/4
f 98/2/4 99/2/4 101/2/4
f 101/2/4 99/2/4 102/2/4
f 103/2/4 104/2/4 105/2/4
f 105/2/4 104/2/4 106/2/4
f 105/3/4 106/3/4 107/3/4
f 107/3/4 106/3/4 108/3/4
f 107/2/4 108/2/4 109/2/4
f 109/2/4 108/2/4 110/2/4
f 113/1/5 112/1/5 111/1/5
f 114/1/5 112/1/5 113/1/5
f 120/2/5 116/2/5 115/2/5
f 121/3/5 117/3/5 116/3/5
f 121/2/5 116/2/5 120/2/5
f 122/2/5 118/2/5 117/2/5
f 122/3/5 117/3/5 121/3/5
f 123/2/5 118/2/5 122/2/5
f 125/1/5 121/1/5 120/1/5
f 125/1/5 122/1/5 121/1/5
f 125/1/5 123/1/5 122/1/5
f 126/1/5 123/1/5 125/1/5
f 127/2/5 120/2/5 119/2/5
f 128/1/5 125/1/5 120/1/5
f 128/2/5 120/2/5 127/2/5
f 129/1/5 125/1/5 128/1/5
f 130/1/5 123/1/5 126/1/5
f 131/3/5 128/3/5 127/3/5
f 132/1/5 129/1/5 128/1/5
f 132/3/5 128/3/5 131/3/5
f 132/1/5 130/1/5 129/1/5
f 133/1/5 130/1/5 132/1/5
f 134/1/5 123/1/5 130/1/5
f 134/1/5 130/1/5 133/1/5
f 135/2/5 124/2/5 123/2/5
f 135/1/5 123/1/5 134/1/5
f 136/2/5 124/2/5 135/2/5
f 137/2/5 133/2/5 132/2/5
f 138/3/5 134/3/5 133/3/5
f 138/2/5 133/2/5 137/2/5
f 139/2/5 135/2/5 134/2/5
f 139/3/5 134/3/5 138/3/5
f 140/2/5 135/2/5 139/2/5
f 141/2/6 142/2/6 146/2/6
f 142/3/6 143/3/6 147/3/6
f 146/2/6 142/2/6 147/2/6
f 143/2/6 144/2/6 148/2/6
f 147/3/6 143/3/6 148/3/6
f 148/2/6 144/2/6 149/2/6
f 145/2/6 146/2/6 151/2/6
f 149/2/6 150/2/6 152/2/6
f 145/2/6 151/2/6 153/2/6
f 153/2/6 151/2/6 154/2/6
f 152/2/6 150/2/6 155/2/6
f 153/3/6 154/3/6 156/3/6
f 156/3/6 154/3/6 157/3/6
f 155/2/6 150/2/6 160/2/6
f 160/2/6 150/2/6 161/2/6
f 157/2/6 158/2/6 162/2/6
f 158/3/6 159/3/6 163/3/6
f 162/2/6 158/2/6 163/2/6
f 159/2/6 160/2/6 164/2/6
f 163/3/6 159/3/6 164/3/6
f 164/2/6 160/2/6 165/2/6
f 166/3/6 167/3/6 169/3/6
f 167/2/6 168/2/6 170/2/6
f 169/3/6 167/3/6 170/3/6
f 170/2/6 168/2/6 171/2/6
f 171/2/6 168/2/6 172/2/6
f 169/2/6 170/2/6 173/2/6
f 171/3/6 172/3/6 174/3/6
f 174/3/6 172/3/6 175/3/6
f 169/2/6 173/2/6 176/2/6
f 173/2/6 174/2/6 176/2/6
f 174/2/6 175/2/6 176/2/6
f 176/2/6 175/2/6 177/2/6
f 178/2/6 179/2/6 180/2/6
f 180/2/6 179/2/6 181/2/6
