# MagicaVoxel @ Ephtracy

# group
o 

# material
mtllib mushroom.mtl
usemtl palette

# normals
vn -1 0 0
vn 1 0 0
vn 0 0 1
vn 0 0 -1
vn 0 -1 0
vn 0 1 0

# texcoords
vt 0.201172 0.5
vt 0.205078 0.5
vt 0.369141 0.5

# verts
v -0.4 0.3 0.2
v -0.4 0.3 -0.1
v -0.4 0.4 0.2
v -0.4 0.4 -0.1
v -0.3 0.3 0.3
v -0.3 0.3 0.2
v -0.3 0.3 -0.1
v -0.3 0.3 -0.2
v -0.3 0.4 0.3
v -0.3 0.4 0.2
v -0.3 0.4 -0.1
v -0.3 0.4 -0.2
v -0.3 0.5 0.2
v -0.3 0.5 -0.1
v -0.2 0 0.1
v -0.2 0 -2.98023e-08
v -0.2 0.3 0.1
v -0.2 0.3 -2.98023e-08
v -0.1 0 0.1
v -0.1 0 -2.98023e-08
v -0.1 0.3 0.1
v -0.1 0.3 -2.98023e-08
v 0 0.3 0.3
v 0 0.3 0.2
v 0 0.3 -0.1
v 0 0.3 -0.2
v 0 0.4 0.3
v 0 0.4 0.2
v 0 0.4 -0.1
v 0 0.4 -0.2
v 0 0.5 0.2
v 0 0.5 -0.1
v 0.1 0.3 0.2
v 0.1 0.3 -0.1
v 0.1 0.4 0.2
v 0.1 0.4 -0.1
v -0.3 0.3 0.3
v -0.3 0.4 0.3
v 0 0.3 0.3
v 0 0.4 0.3
v -0.4 0.3 0.2
v -0.4 0.4 0.2
v -0.3 0.3 0.2
v -0.3 0.4 0.2
v -0.3 0.5 0.2
v 0 0.3 0.2
v 0 0.4 0.2
v 0 0.5 0.2
v 0.1 0.3 0.2
v 0.1 0.4 0.2
v -0.2 0 0.1
v -0.2 0.3 0.1
v -0.1 0 0.1
v -0.1 0.3 0.1
v -0.2 0 -2.98023e-08
v -0.2 0.3 -2.98023e-08
v -0.1 0 -2.98023e-08
v -0.1 0.3 -2.98023e-08
v -0.4 0.3 -0.1
v -0.4 0.4 -0.1
v -0.3 0.3 -0.1
v -0.3 0.4 -0.1
v -0.3 0.5 -0.1
v 0 0.3 -0.1
v 0 0.4 -0.1
v 0 0.5 -0.1
v 0.1 0.3 -0.1
v 0.1 0.4 -0.1
v -0.3 0.3 -0.2
v -0.3 0.4 -0.2
v 0 0.3 -0.2
v 0 0.4 -0.2
v -0.2 0 0.1
v -0.1 0 0.1
v -0.2 0 -2.98023e-08
v -0.1 0 -2.98023e-08
v -0.3 0.3 0.3
v 0 0.3 0.3
v -0.4 0.3 0.2
v -0.3 0.3 0.2
v 0 0.3 0.2
v 0.1 0.3 0.2
v -0.2 0.3 0.1
v -0.1 0.3 0.1
v -0.2 0.3 -2.98023e-08
v -0.1 0.3 -2.98023e-08
v -0.4 0.3 -0.1
v -0.3 0.3 -0.1
v 0 0.3 -0.1
v 0.1 0.3 -0.1
v -0.3 0.3 -0.2
v 0 0.3 -0.2
v -0.3 0.4 0.3
v 0 0.4 0.3
v -0.4 0.4 0.2
v -0.3 0.4 0.2
v 0 0.4 0.2
v 0.1 0.4 0.2
v -0.4 0.4 -0.1
v -0.3 0.4 -0.1
v 0 0.4 -0.1
v 0.1 0.4 -0.1
v -0.3 0.4 -0.2
v 0 0.4 -0.2
v -0.3 0.5 0.2
v 0 0.5 0.2
v -0.3 0.5 -0.1
v 0 0.5 -0.1

# faces
f 3/3/1 2/3/1 1/3/1
f 4/3/1 2/3/1 3/3/1
f 9/3/1 6/3/1 5/3/1
f 10/3/1 6/3/1 9/3/1
f 11/3/1 8/3/1 7/3/1
f 12/3/1 8/3/1 11/3/1
f 13/3/1 11/3/1 10/3/1
f 14/3/1 11/3/1 13/3/1
f 17/1/1 16/1/1 15/1/1
f 18/1/1 16/1/1 17/1/1
f 19/1/2 20/1/2 21/1/2
f 21/1/2 20/1/2 22/1/2
f 23/3/2 24/3/2 27/3/2
f 27/3/2 24/3/2 28/3/2
f 25/3/2 26/3/2 29/3/2
f 29/3/2 26/3/2 30/3/2
f 28/3/2 29/3/2 31/3/2
f 31/3/2 29/3/2 32/3/2
f 33/3/2 34/3/2 35/3/2
f 35/3/2 34/3/2 36/3/2
f 39/3/3 38/3/3 37/3/3
f 40/3/3 38/3/3 39/3/3
f 43/3/3 42/3/3 41/3/3
f 44/3/3 42/3/3 43/3/3
f 47/3/3 45/3/3 44/3/3
f 48/3/3 45/3/3 47/3/3
f 49/3/3 47/3/3 46/3/3
f 50/3/3 47/3/3 49/3/3
f 53/1/3 52/1/3 51/1/3
f 54/1/3 52/1/3 53/1/3
f 55/1/4 56/1/4 57/1/4
f 57/1/4 56/1/4 58/1/4
f 59/3/4 60/3/4 61/3/4
f 61/3/4 60/3/4 62/3/4
f 62/3/4 63/3/4 65/3/4
f 65/3/4 63/3/4 66/3/4
f 64/3/4 65/3/4 67/3/4
f 67/3/4 65/3/4 68/3/4
f 69/3/4 70/3/4 71/3/4
f 71/3/4 70/3/4 72/3/4
f 75/1/5 74/1/5 73/1/5
f 76/1/5 74/1/5 75/1/5
f 80/3/5 78/3/5 77/3/5
f 81/3/5 78/3/5 80/3/5
f 83/2/5 81/2/5 80/2/5
f 84/2/5 81/2/5 83/2/5
f 85/2/5 83/2/5 80/2/5
f 86/2/5 81/2/5 84/2/5
f 87/3/5 80/3/5 79/3/5
f 88/2/5 86/2/5 85/2/5
f 88/3/5 80/3/5 87/3/5
f 88/2/5 85/2/5 80/2/5
f 89/3/5 82/3/5 81/3/5
f 89/2/5 86/2/5 88/2/5
f 89/2/5 81/2/5 86/2/5
f 90/3/5 82/3/5 89/3/5
f 91/3/5 89/3/5 88/3/5
f 92/3/5 89/3/5 91/3/5
f 93/3/6 94/3/6 96/3/6
f 96/3/6 94/3/6 97/3/6
f 95/3/6 96/3/6 99/3/6
f 99/3/6 96/3/6 100/3/6
f 97/3/6 98/3/6 101/3/6
f 101/3/6 98/3/6 102/3/6
f 100/3/6 101/3/6 103/3/6
f 103/3/6 101/3/6 104/3/6
f 105/3/6 106/3/6 107/3/6
f 107/3/6 106/3/6 108/3/6
