# MagicaVoxel @ Ephtracy

# group
o 

# material
mtllib rock_small.mtl
usemtl palette

# normals
vn -1 0 0
vn 1 0 0
vn 0 0 1
vn 0 0 -1
vn 0 -1 0
vn 0 1 0

# texcoords
vt 0.982422 0.5
vt 0.986328 0.5

# verts
v -0.3 0 0.2
v -0.3 0 0
v -0.3 0 -0.2
v -0.3 0 -0.4
v -0.3 0.1 0.2
v -0.3 0.1 0
v -0.3 0.1 -0.2
v -0.3 0.1 -0.4
v -0.2 0 0
v -0.2 0 -0.2
v -0.2 0.1 0.1
v -0.2 0.1 0
v -0.2 0.1 -0.2
v -0.2 0.1 -0.4
v -0.2 0.2 0.1
v -0.2 0.2 0
v -0.2 0.3 0
v -0.2 0.3 -0.4
v -0.1 0 -0.4
v -0.1 0 -0.5
v -0.1 0.1 -0.4
v -0.1 0.1 -0.5
v -0.1 0.2 0.1
v -0.1 0.2 0
v -0.1 0.3 0.1
v -0.1 0.3 0
v -0.1 0.3 -0.1
v -0.1 0.3 -0.3
v -0.1 0.4 -0.1
v -0.1 0.4 -0.3
v 0 0 0.2
v 0 0 0.1
v 0 0.1 0.2
v 0 0.1 0.1
v 0 0.1 -0.4
v 0 0.1 -0.5
v 0 0.3 -0.3
v 0 0.3 -0.4
v 0 0.3 -0.5
v 0 0.4 -0.2
v 0 0.4 -0.3
v 0 0.5 -0.2
v 0 0.5 -0.5
v 0.2 0 -0.5
v 0.2 0 -0.6
v 0.2 0.2 -0.5
v 0.2 0.2 -0.6
v -0.1 0 0.2
v -0.1 0 0.1
v -0.1 0.1 0.2
v -0.1 0.1 0.1
v 0.1 0 0.2
v 0.1 0 0.1
v 0.1 0.1 0.2
v 0.1 0.1 0.1
v 0.1 0.3 -0.1
v 0.1 0.3 -0.2
v 0.1 0.4 -0.1
v 0.1 0.4 -0.2
v 0.2 0 0.1
v 0.2 0 0
v 0.2 0.1 0.1
v 0.2 0.1 0
v 0.2 0.1 -0.1
v 0.2 0.1 -0.2
v 0.2 0.3 0.1
v 0.2 0.3 -0.1
v 0.2 0.3 -0.2
v 0.3 0 0
v 0.3 0 -0.3
v 0.3 0 -0.4
v 0.3 0.1 0
v 0.3 0.1 -0.2
v 0.3 0.1 -0.3
v 0.3 0.2 -0.4
v 0.3 0.2 -0.5
v 0.3 0.4 -0.3
v 0.3 0.4 -0.5
v 0.3 0.5 -0.2
v 0.3 0.5 -0.3
v 0.3 0.5 -0.5
v 0.4 0 -0.4
v 0.4 0 -0.6
v 0.4 0.2 -0.4
v 0.4 0.2 -0.6
v -0.3 0 0.2
v -0.3 0.1 0.2
v -0.1 0 0.2
v -0.1 0.1 0.2
v 0 0 0.2
v 0 0.1 0.2
v 0.1 0 0.2
v 0.1 0.1 0.2
v -0.2 0.1 0.1
v -0.2 0.2 0.1
v -0.1 0 0.1
v -0.1 0.1 0.1
v -0.1 0.2 0.1
v -0.1 0.3 0.1
v 0 0 0.1
v 0 0.1 0.1
v 0 0.3 0.1
v 0.1 0 0.1
v 0.1 0.1 0.1
v 0.2 0 0.1
v 0.2 0.1 0.1
v 0.2 0.3 0.1
v -0.2 0.2 0
v -0.2 0.3 0
v -0.1 0.2 0
v -0.1 0.3 0
v 0.2 0 0
v 0.2 0.1 0
v 0.3 0 0
v 0.3 0.1 0
v -0.1 0.3 -0.1
v -0.1 0.4 -0.1
v 0 0.3 -0.1
v 0.1 0.3 -0.1
v 0.1 0.4 -0.1
v -0.3 0 -0.2
v -0.3 0.1 -0.2
v -0.2 0 -0.2
v -0.2 0.1 -0.2
v 0 0.4 -0.2
v 0 0.5 -0.2
v 0.1 0.3 -0.2
v 0.1 0.4 -0.2
v 0.2 0.1 -0.2
v 0.2 0.3 -0.2
v 0.3 0.1 -0.2
v 0.3 0.5 -0.2
v 0.3 0 -0.4
v 0.3 0.2 -0.4
v 0.4 0 -0.4
v 0.4 0.2 -0.4
v -0.3 0 0
v -0.3 0.1 0
v -0.2 0 0
v -0.2 0.1 0
v -0.1 0.3 -0.3
v -0.1 0.4 -0.3
v 0 0.3 -0.3
v 0 0.4 -0.3
v -0.3 0 -0.4
v -0.3 0.1 -0.4
v -0.2 0 -0.4
v -0.2 0.1 -0.4
v -0.2 0.3 -0.4
v -0.1 0 -0.4
v -0.1 0.1 -0.4
v 0 0.1 -0.4
v 0 0.3 -0.4
v -0.1 0 -0.5
v -0.1 0.1 -0.5
v 0 0 -0.5
v 0 0.1 -0.5
v 0 0.3 -0.5
v 0 0.5 -0.5
v 0.1 0.1 -0.5
v 0.1 0.3 -0.5
v 0.1 0.4 -0.5
v 0.1 0.5 -0.5
v 0.2 0 -0.5
v 0.2 0.2 -0.5
v 0.3 0.2 -0.5
v 0.3 0.4 -0.5
v 0.3 0.5 -0.5
v 0.2 0 -0.6
v 0.2 0.2 -0.6
v 0.4 0 -0.6
v 0.4 0.2 -0.6
v -0.3 0 0.2
v -0.1 0 0.2
v 0 0 0.2
v 0.1 0 0.2
v -0.2 0 0.1
v -0.1 0 0.1
v 0 0 0.1
v 0.1 0 0.1
v 0.2 0 0.1
v -0.3 0 0
v -0.2 0 0
v 0.1 0 0
v 0.2 0 0
v 0.3 0 0
v 0.1 0 -0.1
v 0.2 0 -0.1
v -0.3 0 -0.2
v -0.2 0 -0.2
v 0.2 0 -0.3
v 0.3 0 -0.3
v -0.3 0 -0.4
v -0.2 0 -0.4
v -0.1 0 -0.4
v 0 0 -0.4
v 0.2 0 -0.4
v 0.3 0 -0.4
v 0.4 0 -0.4
v -0.1 0 -0.5
v 0 0 -0.5
v 0.2 0 -0.5
v 0.2 0 -0.6
v 0.4 0 -0.6
v -0.3 0.1 0.2
v -0.1 0.1 0.2
v 0 0.1 0.2
v 0.1 0.1 0.2
v -0.2 0.1 0.1
v -0.1 0.1 0.1
v 0 0.1 0.1
v 0.1 0.1 0.1
v -0.3 0.1 0
v -0.2 0.1 0
v 0.2 0.1 0
v 0.3 0.1 0
v 0.2 0.1 -0.1
v -0.3 0.1 -0.2
v -0.2 0.1 -0.2
v 0.2 0.1 -0.2
v 0.3 0.1 -0.2
v -0.3 0.1 -0.4
v -0.2 0.1 -0.4
v -0.1 0.1 -0.4
v 0 0.1 -0.4
v -0.1 0.1 -0.5
v 0 0.1 -0.5
v -0.2 0.2 0.1
v -0.1 0.2 0.1
v -0.2 0.2 0
v -0.1 0.2 0
v 0.3 0.2 -0.4
v 0.4 0.2 -0.4
v 0.2 0.2 -0.5
v 0.3 0.2 -0.5
v 0.2 0.2 -0.6
v 0.4 0.2 -0.6
v -0.1 0.3 0.1
v 0 0.3 0.1
v 0.2 0.3 0.1
v -0.2 0.3 0
v -0.1 0.3 0
v -0.1 0.3 -0.1
v 0 0.3 -0.1
v 0.1 0.3 -0.1
v 0.2 0.3 -0.1
v 0.1 0.3 -0.2
v 0.2 0.3 -0.2
v -0.1 0.3 -0.3
v 0 0.3 -0.3
v -0.2 0.3 -0.4
v 0 0.3 -0.4
v -0.1 0.4 -0.1
v 0.1 0.4 -0.1
v 0 0.4 -0.2
v 0.1 0.4 -0.2
v -0.1 0.4 -0.3
v 0 0.4 -0.3
v 0 0.5 -0.2
v 0.3 0.5 -0.2
v 0.1 0.5 -0.3
v 0.3 0.5 -0.3
v 0 0.5 -0.5
v 0.1 0.5 -0.5
v 0.3 0.5 -0.5

# faces
f 5/2/1 2/2/1 1/2/1
f 6/2/1 2/2/1 5/2/1
f 7/2/1 4/2/1 3/2/1
f 8/2/1 4/2/1 7/2/1
f 12/1/1 10/1/1 9/1/1
f 13/1/1 10/1/1 12/1/1
f 15/1/1 12/1/1 11/1/1
f 15/1/1 14/1/1 13/1/1
f 15/1/1 13/1/1 12/1/1
f 16/1/1 14/1/1 15/1/1
f 17/1/1 14/1/1 16/1/1
f 18/1/1 14/1/1 17/1/1
f 21/2/1 20/2/1 19/2/1
f 22/2/1 20/2/1 21/2/1
f 25/1/1 24/1/1 23/1/1
f 26/1/1 24/1/1 25/1/1
f 29/2/1 28/2/1 27/2/1
f 30/2/1 28/2/1 29/2/1
f 33/1/1 32/1/1 31/1/1
f 34/1/1 32/1/1 33/1/1
f 38/2/1 36/2/1 35/2/1
f 39/2/1 36/2/1 38/2/1
f 41/1/1 38/1/1 37/1/1
f 41/1/1 39/1/1 38/1/1
f 42/1/1 41/1/1 40/1/1
f 43/1/1 39/1/1 41/1/1
f 43/1/1 41/1/1 42/1/1
f 46/2/1 45/2/1 44/2/1
f 47/2/1 45/2/1 46/2/1
f 48/2/2 49/2/2 50/2/2
f 50/2/2 49/2/2 51/2/2
f 52/1/2 53/1/2 54/1/2
f 54/1/2 53/1/2 55/1/2
f 56/2/2 57/2/2 58/2/2
f 58/2/2 57/2/2 59/2/2
f 60/1/2 61/1/2 62/1/2
f 62/1/2 61/1/2 63/1/2
f 62/2/2 63/2/2 66/2/2
f 63/2/2 64/2/2 66/2/2
f 64/1/2 65/1/2 67/1/2
f 66/2/2 64/2/2 67/2/2
f 67/1/2 65/1/2 68/1/2
f 69/2/2 70/2/2 72/2/2
f 72/2/2 70/2/2 73/2/2
f 70/1/2 71/1/2 74/1/2
f 73/2/2 70/2/2 74/2/2
f 74/1/2 71/1/2 75/1/2
f 73/1/2 74/1/2 75/1/2
f 73/1/2 75/1/2 77/1/2
f 75/1/2 76/1/2 77/1/2
f 77/1/2 76/1/2 78/1/2
f 73/1/2 77/1/2 79/1/2
f 77/2/2 78/2/2 80/2/2
f 79/1/2 77/1/2 80/1/2
f 80/2/2 78/2/2 81/2/2
f 82/2/2 83/2/2 84/2/2
f 84/2/2 83/2/2 85/2/2
f 88/2/3 87/2/3 86/2/3
f 89/2/3 87/2/3 88/2/3
f 92/1/3 91/1/3 90/1/3
f 93/1/3 91/1/3 92/1/3
f 97/1/3 95/1/3 94/1/3
f 98/1/3 95/1/3 97/1/3
f 100/1/3 97/1/3 96/1/3
f 100/1/3 99/1/3 98/1/3
f 100/1/3 98/1/3 97/1/3
f 101/1/3 99/1/3 100/1/3
f 102/1/3 99/1/3 101/1/3
f 104/2/3 102/2/3 101/2/3
f 105/1/3 104/1/3 103/1/3
f 106/2/3 102/2/3 104/2/3
f 106/1/3 104/1/3 105/1/3
f 107/2/3 102/2/3 106/2/3
f 110/1/3 109/1/3 108/1/3
f 111/1/3 109/1/3 110/1/3
f 114/2/3 113/2/3 112/2/3
f 115/2/3 113/2/3 114/2/3
f 118/2/3 117/2/3 116/2/3
f 119/2/3 117/2/3 118/2/3
f 120/2/3 117/2/3 119/2/3
f 123/2/3 122/2/3 121/2/3
f 124/2/3 122/2/3 123/2/3
f 128/1/3 126/1/3 125/1/3
f 130/1/3 128/1/3 127/1/3
f 131/1/3 130/1/3 129/1/3
f 132/1/3 126/1/3 128/1/3
f 132/1/3 130/1/3 131/1/3
f 132/1/3 128/1/3 130/1/3
f 135/2/3 134/2/3 133/2/3
f 136/2/3 134/2/3 135/2/3
f 137/2/4 138/2/4 139/2/4
f 139/2/4 138/2/4 140/2/4
f 141/2/4 142/2/4 143/2/4
f 143/2/4 142/2/4 144/2/4
f 145/2/4 146/2/4 147/2/4
f 147/2/4 146/2/4 148/2/4
f 147/1/4 148/1/4 150/1/4
f 148/1/4 149/1/4 150/1/4
f 150/1/4 149/1/4 151/1/4
f 151/1/4 149/1/4 152/1/4
f 152/1/4 149/1/4 153/1/4
f 154/2/4 155/2/4 156/2/4
f 156/2/4 155/2/4 157/2/4
f 156/1/4 157/1/4 160/1/4
f 157/2/4 158/2/4 160/2/4
f 158/1/4 159/1/4 161/1/4
f 160/2/4 158/2/4 161/2/4
f 161/1/4 159/1/4 162/1/4
f 162/1/4 159/1/4 163/1/4
f 156/1/4 160/1/4 164/1/4
f 160/1/4 161/1/4 164/1/4
f 161/1/4 162/1/4 164/1/4
f 164/1/4 162/1/4 165/1/4
f 165/1/4 162/1/4 166/1/4
f 162/2/4 163/2/4 167/2/4
f 166/1/4 162/1/4 167/1/4
f 167/2/4 163/2/4 168/2/4
f 169/2/4 170/2/4 171/2/4
f 171/2/4 170/2/4 172/2/4
f 177/2/5 174/2/5 173/2/5
f 178/2/5 174/2/5 177/2/5
f 179/1/5 176/1/5 175/1/5
f 180/1/5 176/1/5 179/1/5
f 182/2/5 177/2/5 173/2/5
f 183/1/5 178/1/5 177/1/5
f 183/2/5 177/2/5 182/2/5
f 183/1/5 181/1/5 180/1/5
f 183/1/5 180/1/5 179/1/5
f 183/1/5 179/1/5 178/1/5
f 184/1/5 181/1/5 183/1/5
f 185/1/5 181/1/5 184/1/5
f 187/2/5 186/2/5 185/2/5
f 187/2/5 185/2/5 184/2/5
f 187/1/5 184/1/5 183/1/5
f 188/2/5 186/2/5 187/2/5
f 190/1/5 187/1/5 183/1/5
f 190/1/5 188/1/5 187/1/5
f 191/2/5 186/2/5 188/2/5
f 191/1/5 188/1/5 190/1/5
f 192/2/5 186/2/5 191/2/5
f 193/2/5 190/2/5 189/2/5
f 194/1/5 191/1/5 190/1/5
f 194/2/5 190/2/5 193/2/5
f 194/1/5 192/1/5 191/1/5
f 195/1/5 192/1/5 194/1/5
f 196/1/5 192/1/5 195/1/5
f 197/1/5 192/1/5 196/1/5
f 198/1/5 192/1/5 197/1/5
f 200/2/5 196/2/5 195/2/5
f 201/1/5 197/1/5 196/1/5
f 201/2/5 196/2/5 200/2/5
f 202/2/5 198/2/5 197/2/5
f 202/1/5 197/1/5 201/1/5
f 202/2/5 199/2/5 198/2/5
f 203/2/5 199/2/5 202/2/5
f 204/2/5 199/2/5 203/2/5
f 205/2/6 206/2/6 209/2/6
f 209/2/6 206/2/6 210/2/6
f 207/1/6 208/1/6 211/1/6
f 211/1/6 208/1/6 212/1/6
f 205/2/6 209/2/6 213/2/6
f 213/2/6 209/2/6 214/2/6
f 215/2/6 216/2/6 217/2/6
f 217/2/6 216/2/6 220/2/6
f 220/2/6 216/2/6 221/2/6
f 218/2/6 219/2/6 222/2/6
f 222/2/6 219/2/6 223/2/6
f 224/2/6 225/2/6 226/2/6
f 226/2/6 225/2/6 227/2/6
f 228/1/6 229/1/6 230/1/6
f 230/1/6 229/1/6 231/1/6
f 232/2/6 233/2/6 235/2/6
f 234/2/6 235/2/6 236/2/6
f 235/2/6 233/2/6 237/2/6
f 236/2/6 235/2/6 237/2/6
f 238/1/6 239/1/6 242/1/6
f 242/1/6 239/1/6 243/1/6
f 241/1/6 242/1/6 243/1/6
f 239/2/6 240/2/6 244/2/6
f 243/1/6 239/1/6 244/1/6
f 244/2/6 240/2/6 245/2/6
f 245/2/6 240/2/6 246/2/6
f 245/1/6 246/1/6 247/1/6
f 247/1/6 246/1/6 248/1/6
f 241/1/6 243/1/6 249/1/6
f 241/1/6 249/1/6 251/1/6
f 249/1/6 250/1/6 251/1/6
f 251/1/6 250/1/6 252/1/6
f 253/2/6 254/2/6 255/2/6
f 255/2/6 254/2/6 256/2/6
f 253/2/6 255/2/6 257/2/6
f 257/2/6 255/2/6 258/2/6
f 259/1/6 260/1/6 261/1/6
f 261/1/6 260/1/6 262/1/6
f 259/1/6 261/1/6 263/1/6
f 261/2/6 262/2/6 264/2/6
f 263/1/6 261/1/6 264/1/6
f 264/2/6 262/2/6 265/2/6
