# MagicaVoxel @ Ephtracy

# group
o 

# material
mtllib arrow.mtl
usemtl palette

# normals
vn -1 0 0
vn 1 0 0
vn 0 0 1
vn 0 0 -1
vn 0 -1 0
vn 0 1 0

# texcoords
vt 0.224609 0.5
vt 0.263672 0.5
vt 0.966797 0.5

# verts
v -1 0.3 -0.1
v -1 0.3 -0.2
v -1 0.4 -0.1
v -1 0.4 -0.2
v -0.9 0.2 -0.1
v -0.9 0.2 -0.2
v -0.9 0.3 -7.45058e-08
v -0.9 0.3 -0.1
v -0.9 0.3 -0.2
v -0.9 0.3 -0.3
v -0.9 0.4 -7.45058e-08
v -0.9 0.4 -0.1
v -0.9 0.4 -0.2
v -0.9 0.4 -0.3
v -0.9 0.5 -0.1
v -0.9 0.5 -0.2
v 0.8 0.2 -0.1
v 0.8 0.2 -0.2
v 0.8 0.3 -7.45058e-08
v 0.8 0.3 -0.1
v 0.8 0.3 -0.2
v 0.8 0.3 -0.3
v 0.8 0.4 -7.45058e-08
v 0.8 0.4 -0.1
v 0.8 0.4 -0.2
v 0.8 0.4 -0.3
v 0.8 0.5 -0.1
v 0.8 0.5 -0.2
v 1 0.1 -0.1
v 1 0.1 -0.2
v 1 0.2 -0.1
v 1 0.2 -0.2
v 1 0.3 0.0999999
v 1 0.3 -7.45058e-08
v 1 0.3 -0.3
v 1 0.3 -0.4
v 1 0.4 0.0999999
v 1 0.4 -7.45058e-08
v 1 0.4 -0.3
v 1 0.4 -0.4
v 1 0.5 -0.1
v 1 0.5 -0.2
v 1 0.6 -0.1
v 1 0.6 -0.2
v -0.7 0.2 -0.1
v -0.7 0.2 -0.2
v -0.7 0.3 -7.45058e-08
v -0.7 0.3 -0.1
v -0.7 0.3 -0.2
v -0.7 0.3 -0.3
v -0.7 0.4 -7.45058e-08
v -0.7 0.4 -0.1
v -0.7 0.4 -0.2
v -0.7 0.4 -0.3
v -0.7 0.5 -0.1
v -0.7 0.5 -0.2
v 1 0.2 -0.1
v 1 0.2 -0.2
v 1 0.3 -7.45058e-08
v 1 0.3 -0.1
v 1 0.3 -0.2
v 1 0.3 -0.3
v 1 0.4 -7.45058e-08
v 1 0.4 -0.1
v 1 0.4 -0.2
v 1 0.4 -0.3
v 1 0.5 -0.1
v 1 0.5 -0.2
v 1.1 0.1 -0.1
v 1.1 0.1 -0.2
v 1.1 0.2 -0.1
v 1.1 0.2 -0.2
v 1.1 0.3 0.0999999
v 1.1 0.3 -7.45058e-08
v 1.1 0.3 -0.3
v 1.1 0.3 -0.4
v 1.1 0.4 0.0999999
v 1.1 0.4 -7.45058e-08
v 1.1 0.4 -0.3
v 1.1 0.4 -0.4
v 1.1 0.5 -0.1
v 1.1 0.5 -0.2
v 1.1 0.6 -0.1
v 1.1 0.6 -0.2
v 1 0.3 0.0999999
v 1 0.4 0.0999999
v 1.1 0.3 0.0999999
v 1.1 0.4 0.0999999
v -0.9 0.3 -7.45058e-08
v -0.9 0.4 -7.45058e-08
v -0.7 0.3 -7.45058e-08
v -0.7 0.4 -7.45058e-08
v 0.8 0.3 -7.45058e-08
v 0.8 0.4 -7.45058e-08
v 1 0.3 -7.45058e-08
v 1 0.4 -7.45058e-08
v -1 0.3 -0.1
v -1 0.4 -0.1
v -0.9 0.2 -0.1
v -0.9 0.3 -0.1
v -0.9 0.4 -0.1
v -0.9 0.5 -0.1
v -0.7 0.2 -0.1
v -0.7 0.3 -0.1
v -0.7 0.4 -0.1
v -0.7 0.5 -0.1
v -0.3 0.3 -0.1
v -0.3 0.4 -0.1
v -0.0999999 0.3 -0.1
v -0.0999999 0.4 -0.1
v 0.3 0.3 -0.1
v 0.3 0.4 -0.1
v 0.4 0.3 -0.1
v 0.4 0.4 -0.1
v 0.6 0.3 -0.1
v 0.6 0.4 -0.1
v 0.8 0.2 -0.1
v 0.8 0.3 -0.1
v 0.8 0.4 -0.1
v 0.8 0.5 -0.1
v 1 0.1 -0.1
v 1 0.2 -0.1
v 1 0.3 -0.1
v 1 0.4 -0.1
v 1 0.5 -0.1
v 1 0.6 -0.1
v 1.1 0.1 -0.1
v 1.1 0.2 -0.1
v 1.1 0.5 -0.1
v 1.1 0.6 -0.1
v 1 0.3 -0.3
v 1 0.4 -0.3
v 1.1 0.3 -0.3
v 1.1 0.4 -0.3
v 1 0.3 -7.45058e-08
v 1 0.4 -7.45058e-08
v 1.1 0.3 -7.45058e-08
v 1.1 0.4 -7.45058e-08
v -1 0.3 -0.2
v -1 0.4 -0.2
v -0.9 0.2 -0.2
v -0.9 0.3 -0.2
v -0.9 0.4 -0.2
v -0.9 0.5 -0.2
v -0.7 0.2 -0.2
v -0.7 0.3 -0.2
v -0.7 0.4 -0.2
v -0.7 0.5 -0.2
v -0.3 0.3 -0.2
v -0.3 0.4 -0.2
v -0.0999999 0.3 -0.2
v -0.0999999 0.4 -0.2
v 0.3 0.3 -0.2
v 0.3 0.4 -0.2
v 0.4 0.3 -0.2
v 0.4 0.4 -0.2
v 0.6 0.3 -0.2
v 0.6 0.4 -0.2
v 0.8 0.2 -0.2
v 0.8 0.3 -0.2
v 0.8 0.4 -0.2
v 0.8 0.5 -0.2
v 1 0.1 -0.2
v 1 0.2 -0.2
v 1 0.3 -0.2
v 1 0.4 -0.2
v 1 0.5 -0.2
v 1 0.6 -0.2
v 1.1 0.1 -0.2
v 1.1 0.2 -0.2
v 1.1 0.5 -0.2
v 1.1 0.6 -0.2
v -0.9 0.3 -0.3
v -0.9 0.4 -0.3
v -0.7 0.3 -0.3
v -0.7 0.4 -0.3
v 0.8 0.3 -0.3
v 0.8 0.4 -0.3
v 1 0.3 -0.3
v 1 0.4 -0.3
v 1 0.3 -0.4
v 1 0.4 -0.4
v 1.1 0.3 -0.4
v 1.1 0.4 -0.4
v 1 0.1 -0.1
v 1.1 0.1 -0.1
v 1 0.1 -0.2
v 1.1 0.1 -0.2
v -0.9 0.2 -0.1
v -0.7 0.2 -0.1
v 0.8 0.2 -0.1
v 1 0.2 -0.1
v -0.9 0.2 -0.2
v -0.7 0.2 -0.2
v 0.8 0.2 -0.2
v 1 0.2 -0.2
v 1 0.3 0.0999999
v 1.1 0.3 0.0999999
v -0.9 0.3 -7.45058e-08
v -0.7 0.3 -7.45058e-08
v 0.8 0.3 -7.45058e-08
v 1 0.3 -7.45058e-08
v 1.1 0.3 -7.45058e-08
v -1 0.3 -0.1
v -0.9 0.3 -0.1
v -0.7 0.3 -0.1
v -0.3 0.3 -0.1
v -0.0999999 0.3 -0.1
v 0.3 0.3 -0.1
v 0.4 0.3 -0.1
v 0.6 0.3 -0.1
v 0.8 0.3 -0.1
v 1 0.3 -0.1
v -1 0.3 -0.2
v -0.9 0.3 -0.2
v -0.7 0.3 -0.2
v -0.3 0.3 -0.2
v -0.0999999 0.3 -0.2
v 0.3 0.3 -0.2
v 0.4 0.3 -0.2
v 0.6 0.3 -0.2
v 0.8 0.3 -0.2
v 1 0.3 -0.2
v -0.9 0.3 -0.3
v -0.7 0.3 -0.3
v 0.8 0.3 -0.3
v 1 0.3 -0.3
v 1.1 0.3 -0.3
v 1 0.3 -0.4
v 1.1 0.3 -0.4
v 1 0.5 -0.1
v 1.1 0.5 -0.1
v 1 0.5 -0.2
v 1.1 0.5 -0.2
v 1 0.2 -0.1
v 1.1 0.2 -0.1
v 1 0.2 -0.2
v 1.1 0.2 -0.2
v 1 0.4 0.0999999
v 1.1 0.4 0.0999999
v -0.9 0.4 -7.45058e-08
v -0.7 0.4 -7.45058e-08
v 0.8 0.4 -7.45058e-08
v 1 0.4 -7.45058e-08
v 1.1 0.4 -7.45058e-08
v -1 0.4 -0.1
v -0.9 0.4 -0.1
v -0.7 0.4 -0.1
v -0.3 0.4 -0.1
v -0.0999999 0.4 -0.1
v 0.3 0.4 -0.1
v 0.4 0.4 -0.1
v 0.6 0.4 -0.1
v 0.8 0.4 -0.1
v 1 0.4 -0.1
v -1 0.4 -0.2
v -0.9 0.4 -0.2
v -0.7 0.4 -0.2
v -0.3 0.4 -0.2
v -0.0999999 0.4 -0.2
v 0.3 0.4 -0.2
v 0.4 0.4 -0.2
v 0.6 0.4 -0.2
v 0.8 0.4 -0.2
v 1 0.4 -0.2
v -0.9 0.4 -0.3
v -0.7 0.4 -0.3
v 0.8 0.4 -0.3
v 1 0.4 -0.3
v 1.1 0.4 -0.3
v 1 0.4 -0.4
v 1.1 0.4 -0.4
v -0.9 0.5 -0.1
v -0.7 0.5 -0.1
v 0.8 0.5 -0.1
v 1 0.5 -0.1
v -0.9 0.5 -0.2
v -0.7 0.5 -0.2
v 0.8 0.5 -0.2
v 1 0.5 -0.2
v 1 0.6 -0.1
v 1.1 0.6 -0.1
v 1 0.6 -0.2
v 1.1 0.6 -0.2

# faces
f 3/3/1 2/3/1 1/3/1
f 4/3/1 2/3/1 3/3/1
f 8/3/1 6/3/1 5/3/1
f 9/3/1 6/3/1 8/3/1
f 11/3/1 8/3/1 7/3/1
f 12/3/1 8/3/1 11/3/1
f 13/3/1 10/3/1 9/3/1
f 14/3/1 10/3/1 13/3/1
f 15/3/1 13/3/1 12/3/1
f 16/3/1 13/3/1 15/3/1
f 20/3/1 18/3/1 17/3/1
f 21/3/1 18/3/1 20/3/1
f 23/3/1 20/3/1 19/3/1
f 24/3/1 20/3/1 23/3/1
f 25/3/1 22/3/1 21/3/1
f 26/3/1 22/3/1 25/3/1
f 27/3/1 25/3/1 24/3/1
f 28/3/1 25/3/1 27/3/1
f 31/3/1 30/3/1 29/3/1
f 32/3/1 30/3/1 31/3/1
f 37/3/1 34/3/1 33/3/1
f 38/3/1 34/3/1 37/3/1
f 39/3/1 36/3/1 35/3/1
f 40/3/1 36/3/1 39/3/1
f 43/3/1 42/3/1 41/3/1
f 44/3/1 42/3/1 43/3/1
f 45/3/2 46/3/2 48/3/2
f 48/3/2 46/3/2 49/3/2
f 47/3/2 48/3/2 51/3/2
f 51/3/2 48/3/2 52/3/2
f 49/3/2 50/3/2 53/3/2
f 53/3/2 50/3/2 54/3/2
f 52/3/2 53/3/2 55/3/2
f 55/3/2 53/3/2 56/3/2
f 57/3/2 58/3/2 60/3/2
f 60/3/2 58/3/2 61/3/2
f 59/3/2 60/3/2 63/3/2
f 61/3/2 62/3/2 63/3/2
f 60/3/2 61/3/2 63/3/2
f 63/3/2 62/3/2 64/3/2
f 64/3/2 62/3/2 65/3/2
f 65/3/2 62/3/2 66/3/2
f 64/3/2 65/3/2 67/3/2
f 67/3/2 65/3/2 68/3/2
f 69/3/2 70/3/2 71/3/2
f 71/3/2 70/3/2 72/3/2
f 73/3/2 74/3/2 77/3/2
f 77/3/2 74/3/2 78/3/2
f 75/3/2 76/3/2 79/3/2
f 79/3/2 76/3/2 80/3/2
f 81/3/2 82/3/2 83/3/2
f 83/3/2 82/3/2 84/3/2
f 87/3/3 86/3/3 85/3/3
f 88/3/3 86/3/3 87/3/3
f 91/3/3 90/3/3 89/3/3
f 92/3/3 90/3/3 91/3/3
f 95/3/3 94/3/3 93/3/3
f 96/3/3 94/3/3 95/3/3
f 100/3/3 98/3/3 97/3/3
f 101/3/3 98/3/3 100/3/3
f 103/3/3 100/3/3 99/3/3
f 104/3/3 100/3/3 103/3/3
f 105/3/3 102/3/3 101/3/3
f 106/3/3 102/3/3 105/3/3
f 107/2/3 105/2/3 104/2/3
f 108/2/3 105/2/3 107/2/3
f 109/1/3 108/1/3 107/1/3
f 110/1/3 108/1/3 109/1/3
f 111/2/3 110/2/3 109/2/3
f 112/2/3 110/2/3 111/2/3
f 113/1/3 112/1/3 111/1/3
f 114/1/3 112/1/3 113/1/3
f 115/2/3 114/2/3 113/2/3
f 116/2/3 114/2/3 115/2/3
f 118/1/3 116/1/3 115/1/3
f 119/1/3 116/1/3 118/1/3
f 122/3/3 118/3/3 117/3/3
f 123/3/3 118/3/3 122/3/3
f 124/3/3 120/3/3 119/3/3
f 125/3/3 120/3/3 124/3/3
f 127/3/3 122/3/3 121/3/3
f 128/3/3 122/3/3 127/3/3
f 129/3/3 126/3/3 125/3/3
f 130/3/3 126/3/3 129/3/3
f 133/3/3 132/3/3 131/3/3
f 134/3/3 132/3/3 133/3/3
f 135/3/4 136/3/4 137/3/4
f 137/3/4 136/3/4 138/3/4
f 139/3/4 140/3/4 142/3/4
f 142/3/4 140/3/4 143/3/4
f 141/3/4 142/3/4 145/3/4
f 145/3/4 142/3/4 146/3/4
f 143/3/4 144/3/4 147/3/4
f 147/3/4 144/3/4 148/3/4
f 146/2/4 147/2/4 149/2/4
f 149/2/4 147/2/4 150/2/4
f 149/1/4 150/1/4 151/1/4
f 151/1/4 150/1/4 152/1/4
f 151/2/4 152/2/4 153/2/4
f 153/2/4 152/2/4 154/2/4
f 153/1/4 154/1/4 155/1/4
f 155/1/4 154/1/4 156/1/4
f 155/2/4 156/2/4 157/2/4
f 157/2/4 156/2/4 158/2/4
f 157/1/4 158/1/4 160/1/4
f 160/1/4 158/1/4 161/1/4
f 159/3/4 160/3/4 164/3/4
f 164/3/4 160/3/4 165/3/4
f 161/3/4 162/3/4 166/3/4
f 166/3/4 162/3/4 167/3/4
f 163/3/4 164/3/4 169/3/4
f 169/3/4 164/3/4 170/3/4
f 167/3/4 168/3/4 171/3/4
f 171/3/4 168/3/4 172/3/4
f 173/3/4 174/3/4 175/3/4
f 175/3/4 174/3/4 176/3/4
f 177/3/4 178/3/4 179/3/4
f 179/3/4 178/3/4 180/3/4
f 181/3/4 182/3/4 183/3/4
f 183/3/4 182/3/4 184/3/4
f 187/3/5 186/3/5 185/3/5
f 188/3/5 186/3/5 187/3/5
f 193/3/5 190/3/5 189/3/5
f 194/3/5 190/3/5 193/3/5
f 195/3/5 192/3/5 191/3/5
f 196/3/5 192/3/5 195/3/5
f 202/3/5 198/3/5 197/3/5
f 203/3/5 198/3/5 202/3/5
f 205/3/5 200/3/5 199/3/5
f 206/3/5 200/3/5 205/3/5
f 212/3/5 202/3/5 201/3/5
f 213/3/5 202/3/5 212/3/5
f 214/3/5 205/3/5 204/3/5
f 215/3/5 205/3/5 214/3/5
f 216/2/5 207/2/5 206/2/5
f 217/1/5 208/1/5 207/1/5
f 217/2/5 207/2/5 216/2/5
f 218/2/5 209/2/5 208/2/5
f 218/1/5 208/1/5 217/1/5
f 219/1/5 210/1/5 209/1/5
f 219/2/5 209/2/5 218/2/5
f 220/2/5 211/2/5 210/2/5
f 220/1/5 210/1/5 219/1/5
f 221/1/5 212/1/5 211/1/5
f 221/2/5 211/2/5 220/2/5
f 222/1/5 212/1/5 221/1/5
f 224/3/5 216/3/5 215/3/5
f 225/3/5 216/3/5 224/3/5
f 226/3/5 223/3/5 222/3/5
f 227/3/5 223/3/5 226/3/5
f 229/3/5 228/3/5 227/3/5
f 230/3/5 228/3/5 229/3/5
f 233/3/5 232/3/5 231/3/5
f 234/3/5 232/3/5 233/3/5
f 235/3/6 236/3/6 237/3/6
f 237/3/6 236/3/6 238/3/6
f 239/3/6 240/3/6 244/3/6
f 244/3/6 240/3/6 245/3/6
f 241/3/6 242/3/6 247/3/6
f 247/3/6 242/3/6 248/3/6
f 243/3/6 244/3/6 254/3/6
f 254/3/6 244/3/6 255/3/6
f 246/3/6 247/3/6 256/3/6
f 256/3/6 247/3/6 257/3/6
f 248/2/6 249/2/6 258/2/6
f 249/1/6 250/1/6 259/1/6
f 258/2/6 249/2/6 259/2/6
f 250/2/6 251/2/6 260/2/6
f 259/1/6 250/1/6 260/1/6
f 251/1/6 252/1/6 261/1/6
f 260/2/6 251/2/6 261/2/6
f 252/2/6 253/2/6 262/2/6
f 261/1/6 252/1/6 262/1/6
f 253/1/6 254/1/6 263/1/6
f 262/2/6 253/2/6 263/2/6
f 263/1/6 254/1/6 264/1/6
f 257/3/6 258/3/6 266/3/6
f 266/3/6 258/3/6 267/3/6
f 264/3/6 265/3/6 268/3/6
f 268/3/6 265/3/6 269/3/6
f 269/3/6 270/3/6 271/3/6
f 271/3/6 270/3/6 272/3/6
f 273/3/6 274/3/6 277/3/6
f 277/3/6 274/3/6 278/3/6
f 275/3/6 276/3/6 279/3/6
f 279/3/6 276/3/6 280/3/6
f 281/3/6 282/3/6 283/3/6
f 283/3/6 282/3/6 284/3/6
