# MagicaVoxel @ Ephtracy

# group
o 

# material
mtllib sword.mtl
usemtl palette

# normals
vn -1 0 0
vn 1 0 0
vn 0 0 1
vn 0 0 -1
vn 0 -1 0
vn 0 1 0

# texcoords
vt 0.263672 0.5
vt 0.333984 0.5
vt 0.978516 0.5
vt 0.986328 0.5

# verts
v -0.6 1.4 -0.6
v -0.6 1.4 -0.7
v -0.6 1.7 -0.6
v -0.6 1.7 -0.7
v -0.5 1.3 -0.6
v -0.5 1.3 -0.7
v -0.5 1.4 -0.6
v -0.5 1.4 -0.7
v -0.4 1.2 -0.6
v -0.4 1.2 -0.7
v -0.4 1.3 -0.6
v -0.4 1.3 -0.7
v -0.3 1.1 -0.6
v -0.3 1.1 -0.7
v -0.3 1.2 -0.6
v -0.3 1.2 -0.7
v -0.2 1 -0.6
v -0.2 1 -0.7
v -0.2 1.1 -0.6
v -0.2 1.1 -0.7
v -0.1 0.5 -0.6
v -0.1 0.5 -0.7
v -0.1 0.6 -0.6
v -0.1 0.6 -0.7
v -0.1 0.9 -0.6
v -0.1 0.9 -0.7
v -0.1 1 -0.6
v -0.1 1 -0.7
v 0 0.4 -0.6
v 0 0.4 -0.7
v 0 0.5 -0.5
v 0 0.5 -0.6
v 0 0.5 -0.7
v 0 0.5 -0.8
v 0 0.6 -0.5
v 0 0.6 -0.6
v 0 0.6 -0.7
v 0 0.6 -0.8
v 0 0.7 -0.6
v 0 0.7 -0.7
v 0 0.8 -0.6
v 0 0.8 -0.7
v 0 0.9 -0.6
v 0 0.9 -0.7
v 0.1 0.7 -0.6
v 0.1 0.7 -0.7
v 0.1 0.8 -0.6
v 0.1 0.8 -0.7
v 0.2 0.6 -0.5
v 0.2 0.6 -0.6
v 0.2 0.6 -0.7
v 0.2 0.6 -0.8
v 0.2 0.7 -0.5
v 0.2 0.7 -0.6
v 0.2 0.7 -0.7
v 0.2 0.7 -0.8
v 0.3 0.7 -0.5
v 0.3 0.7 -0.6
v 0.3 0.7 -0.7
v 0.3 0.7 -0.8
v 0.3 0.8 -0.5
v 0.3 0.8 -0.6
v 0.3 0.8 -0.7
v 0.3 0.8 -0.8
v 0.4 0.5 -0.6
v 0.4 0.5 -0.7
v 0.4 0.6 -0.6
v 0.4 0.6 -0.7
v 0.4 0.8 -0.5
v 0.4 0.8 -0.6
v 0.4 0.8 -0.7
v 0.4 0.8 -0.8
v 0.4 0.9 -0.5
v 0.4 0.9 -0.6
v 0.4 0.9 -0.7
v 0.4 0.9 -0.8
v 0.4 1 -0.6
v 0.4 1 -0.7
v 0.4 1.1 -0.6
v 0.4 1.1 -0.7
v 0.5 0.4 -0.6
v 0.5 0.4 -0.7
v 0.5 0.5 -0.6
v 0.5 0.5 -0.7
v 0.5 0.9 -0.5
v 0.5 0.9 -0.6
v 0.5 0.9 -0.7
v 0.5 0.9 -0.8
v 0.5 1.1 -0.5
v 0.5 1.1 -0.6
v 0.5 1.1 -0.7
v 0.5 1.1 -0.8
v 0.5 1.2 -0.6
v 0.5 1.2 -0.7
v 0.6 0.3 -0.6
v 0.6 0.3 -0.7
v 0.6 0.4 -0.6
v 0.6 0.4 -0.7
v -0.3 1.6 -0.6
v -0.3 1.6 -0.7
v -0.3 1.7 -0.6
v -0.3 1.7 -0.7
v -0.2 1.5 -0.6
v -0.2 1.5 -0.7
v -0.2 1.6 -0.6
v -0.2 1.6 -0.7
v -0.1 1.4 -0.6
v -0.1 1.4 -0.7
v -0.1 1.5 -0.6
v -0.1 1.5 -0.7
v 0 1.3 -0.6
v 0 1.3 -0.7
v 0 1.4 -0.6
v 0 1.4 -0.7
v 0.1 1.2 -0.6
v 0.1 1.2 -0.7
v 0.1 1.3 -0.6
v 0.1 1.3 -0.7
v 0.2 0.4 -0.6
v 0.2 0.4 -0.7
v 0.2 0.5 -0.5
v 0.2 0.5 -0.6
v 0.2 0.5 -0.7
v 0.2 0.5 -0.8
v 0.2 0.6 -0.5
v 0.2 0.6 -0.6
v 0.2 0.6 -0.7
v 0.2 0.6 -0.8
v 0.2 1.1 -0.6
v 0.2 1.1 -0.7
v 0.2 1.2 -0.6
v 0.2 1.2 -0.7
v 0.3 0.5 -0.6
v 0.3 0.5 -0.7
v 0.3 0.6 -0.5
v 0.3 0.6 -0.6
v 0.3 0.6 -0.7
v 0.3 0.6 -0.8
v 0.3 0.7 -0.5
v 0.3 0.7 -0.6
v 0.3 0.7 -0.7
v 0.3 0.7 -0.8
v 0.3 1 -0.6
v 0.3 1 -0.7
v 0.3 1.1 -0.6
v 0.3 1.1 -0.7
v 0.4 0.7 -0.5
v 0.4 0.7 -0.6
v 0.4 0.7 -0.7
v 0.4 0.7 -0.8
v 0.4 0.8 -0.5
v 0.4 0.8 -0.6
v 0.4 0.8 -0.7
v 0.4 0.8 -0.8
v 0.5 0.7 -0.6
v 0.5 0.7 -0.7
v 0.5 0.8 -0.5
v 0.5 0.8 -0.6
v 0.5 0.8 -0.7
v 0.5 0.8 -0.8
v 0.5 0.9 -0.5
v 0.5 0.9 -0.6
v 0.5 0.9 -0.7
v 0.5 0.9 -0.8
v 0.6 0.6 -0.6
v 0.6 0.6 -0.7
v 0.6 0.7 -0.6
v 0.6 0.7 -0.7
v 0.6 0.8 -0.6
v 0.6 0.8 -0.7
v 0.6 0.9 -0.5
v 0.6 0.9 -0.6
v 0.6 0.9 -0.7
v 0.6 0.9 -0.8
v 0.6 1.1 -0.5
v 0.6 1.1 -0.6
v 0.6 1.1 -0.7
v 0.6 1.1 -0.8
v 0.6 1.2 -0.6
v 0.6 1.2 -0.7
v 0.7 0.5 -0.6
v 0.7 0.5 -0.7
v 0.7 0.6 -0.6
v 0.7 0.6 -0.7
v 0.7 0.9 -0.6
v 0.7 0.9 -0.7
v 0.7 1.1 -0.6
v 0.7 1.1 -0.7
v 0.8 0.3 -0.6
v 0.8 0.3 -0.7
v 0.8 0.5 -0.6
v 0.8 0.5 -0.7
v 0 0.5 -0.5
v 0 0.6 -0.5
v 0.2 0.5 -0.5
v 0.2 0.6 -0.5
v 0.2 0.7 -0.5
v 0.3 0.6 -0.5
v 0.3 0.7 -0.5
v 0.3 0.8 -0.5
v 0.4 0.7 -0.5
v 0.4 0.8 -0.5
v 0.4 0.9 -0.5
v 0.5 0.8 -0.5
v 0.5 0.9 -0.5
v 0.5 1.1 -0.5
v 0.6 0.9 -0.5
v 0.6 1.1 -0.5
v -0.6 1.4 -0.6
v -0.6 1.7 -0.6
v -0.5 1.3 -0.6
v -0.5 1.4 -0.6
v -0.5 1.5 -0.6
v -0.5 1.6 -0.6
v -0.4 1.2 -0.6
v -0.4 1.3 -0.6
v -0.4 1.4 -0.6
v -0.4 1.5 -0.6
v -0.4 1.6 -0.6
v -0.3 1.1 -0.6
v -0.3 1.2 -0.6
v -0.3 1.3 -0.6
v -0.3 1.4 -0.6
v -0.3 1.5 -0.6
v -0.3 1.6 -0.6
v -0.3 1.7 -0.6
v -0.2 1 -0.6
v -0.2 1.1 -0.6
v -0.2 1.2 -0.6
v -0.2 1.3 -0.6
v -0.2 1.4 -0.6
v -0.2 1.5 -0.6
v -0.2 1.6 -0.6
v -0.1 0.5 -0.6
v -0.1 0.6 -0.6
v -0.1 0.9 -0.6
v -0.1 1 -0.6
v -0.1 1.1 -0.6
v -0.1 1.2 -0.6
v -0.1 1.3 -0.6
v -0.1 1.4 -0.6
v -0.1 1.5 -0.6
v 0 0.4 -0.6
v 0 0.5 -0.6
v 0 0.6 -0.6
v 0 0.7 -0.6
v 0 0.8 -0.6
v 0 0.9 -0.6
v 0 1 -0.6
v 0 1.1 -0.6
v 0 1.2 -0.6
v 0 1.3 -0.6
v 0 1.4 -0.6
v 0.1 0.7 -0.6
v 0.1 0.8 -0.6
v 0.1 0.9 -0.6
v 0.1 1 -0.6
v 0.1 1.1 -0.6
v 0.1 1.2 -0.6
v 0.1 1.3 -0.6
v 0.2 0.4 -0.6
v 0.2 0.5 -0.6
v 0.2 0.6 -0.6
v 0.2 0.7 -0.6
v 0.2 0.8 -0.6
v 0.2 0.9 -0.6
v 0.2 1 -0.6
v 0.2 1.1 -0.6
v 0.2 1.2 -0.6
v 0.3 0.5 -0.6
v 0.3 0.6 -0.6
v 0.3 0.7 -0.6
v 0.3 0.8 -0.6
v 0.3 0.9 -0.6
v 0.3 1 -0.6
v 0.3 1.1 -0.6
v 0.4 0.5 -0.6
v 0.4 0.6 -0.6
v 0.4 0.7 -0.6
v 0.4 0.8 -0.6
v 0.4 0.9 -0.6
v 0.4 1 -0.6
v 0.4 1.1 -0.6
v 0.5 0.4 -0.6
v 0.5 0.5 -0.6
v 0.5 0.7 -0.6
v 0.5 0.8 -0.6
v 0.5 0.9 -0.6
v 0.5 1.1 -0.6
v 0.5 1.2 -0.6
v 0.6 0.3 -0.6
v 0.6 0.4 -0.6
v 0.6 0.6 -0.6
v 0.6 0.7 -0.6
v 0.6 0.8 -0.6
v 0.6 0.9 -0.6
v 0.6 1.1 -0.6
v 0.6 1.2 -0.6
v 0.7 0.5 -0.6
v 0.7 0.6 -0.6
v 0.7 0.9 -0.6
v 0.7 1.1 -0.6
v 0.8 0.3 -0.6
v 0.8 0.5 -0.6
v -0.6 1.4 -0.7
v -0.6 1.7 -0.7
v -0.5 1.3 -0.7
v -0.5 1.4 -0.7
v -0.5 1.5 -0.7
v -0.5 1.6 -0.7
v -0.4 1.2 -0.7
v -0.4 1.3 -0.7
v -0.4 1.4 -0.7
v -0.4 1.5 -0.7
v -0.4 1.6 -0.7
v -0.3 1.1 -0.7
v -0.3 1.2 -0.7
v -0.3 1.3 -0.7
v -0.3 1.4 -0.7
v -0.3 1.5 -0.7
v -0.3 1.6 -0.7
v -0.3 1.7 -0.7
v -0.2 1 -0.7
v -0.2 1.1 -0.7
v -0.2 1.2 -0.7
v -0.2 1.3 -0.7
v -0.2 1.4 -0.7
v -0.2 1.5 -0.7
v -0.2 1.6 -0.7
v -0.1 0.5 -0.7
v -0.1 0.6 -0.7
v -0.1 0.9 -0.7
v -0.1 1 -0.7
v -0.1 1.1 -0.7
v -0.1 1.2 -0.7
v -0.1 1.3 -0.7
v -0.1 1.4 -0.7
v -0.1 1.5 -0.7
v 0 0.4 -0.7
v 0 0.5 -0.7
v 0 0.6 -0.7
v 0 0.7 -0.7
v 0 0.8 -0.7
v 0 0.9 -0.7
v 0 1 -0.7
v 0 1.1 -0.7
v 0 1.2 -0.7
v 0 1.3 -0.7
v 0 1.4 -0.7
v 0.1 0.7 -0.7
v 0.1 0.8 -0.7
v 0.1 0.9 -0.7
v 0.1 1 -0.7
v 0.1 1.1 -0.7
v 0.1 1.2 -0.7
v 0.1 1.3 -0.7
v 0.2 0.4 -0.7
v 0.2 0.5 -0.7
v 0.2 0.6 -0.7
v 0.2 0.7 -0.7
v 0.2 0.8 -0.7
v 0.2 0.9 -0.7
v 0.2 1 -0.7
v 0.2 1.1 -0.7
v 0.2 1.2 -0.7
v 0.3 0.5 -0.7
v 0.3 0.6 -0.7
v 0.3 0.7 -0.7
v 0.3 0.8 -0.7
v 0.3 0.9 -0.7
v 0.3 1 -0.7
v 0.3 1.1 -0.7
v 0.4 0.5 -0.7
v 0.4 0.6 -0.7
v 0.4 0.7 -0.7
v 0.4 0.8 -0.7
v 0.4 0.9 -0.7
v 0.4 1 -0.7
v 0.4 1.1 -0.7
v 0.5 0.4 -0.7
v 0.5 0.5 -0.7
v 0.5 0.7 -0.7
v 0.5 0.8 -0.7
v 0.5 0.9 -0.7
v 0.5 1.1 -0.7
v 0.5 1.2 -0.7
v 0.6 0.3 -0.7
v 0.6 0.4 -0.7
v 0.6 0.6 -0.7
v 0.6 0.7 -0.7
v 0.6 0.8 -0.7
v 0.6 0.9 -0.7
v 0.6 1.1 -0.7
v 0.6 1.2 -0.7
v 0.7 0.5 -0.7
v 0.7 0.6 -0.7
v 0.7 0.9 -0.7
v 0.7 1.1 -0.7
v 0.8 0.3 -0.7
v 0.8 0.5 -0.7
v 0 0.5 -0.8
v 0 0.6 -0.8
v 0.2 0.5 -0.8
v 0.2 0.6 -0.8
v 0.2 0.7 -0.8
v 0.3 0.6 -0.8
v 0.3 0.7 -0.8
v 0.3 0.8 -0.8
v 0.4 0.7 -0.8
v 0.4 0.8 -0.8
v 0.4 0.9 -0.8
v 0.5 0.8 -0.8
v 0.5 0.9 -0.8
v 0.5 1.1 -0.8
v 0.6 0.9 -0.8
v 0.6 1.1 -0.8
v 0.6 0.3 -0.6
v 0.8 0.3 -0.6
v 0.6 0.3 -0.7
v 0.8 0.3 -0.7
v 0 0.4 -0.6
v 0.2 0.4 -0.6
v 0.5 0.4 -0.6
v 0.6 0.4 -0.6
v 0 0.4 -0.7
v 0.2 0.4 -0.7
v 0.5 0.4 -0.7
v 0.6 0.4 -0.7
v 0 0.5 -0.5
v 0.2 0.5 -0.5
v -0.1 0.5 -0.6
v 0 0.5 -0.6
v 0.2 0.5 -0.6
v 0.3 0.5 -0.6
v 0.4 0.5 -0.6
v 0.5 0.5 -0.6
v -0.1 0.5 -0.7
v 0 0.5 -0.7
v 0.2 0.5 -0.7
v 0.3 0.5 -0.7
v 0.4 0.5 -0.7
v 0.5 0.5 -0.7
v 0 0.5 -0.8
v 0.2 0.5 -0.8
v 0.2 0.6 -0.5
v 0.3 0.6 -0.5
v 0.2 0.6 -0.6
v 0.3 0.6 -0.6
v 0.4 0.6 -0.6
v 0.2 0.6 -0.7
v 0.3 0.6 -0.7
v 0.4 0.6 -0.7
v 0.2 0.6 -0.8
v 0.3 0.6 -0.8
v 0.3 0.7 -0.5
v 0.4 0.7 -0.5
v 0.3 0.7 -0.6
v 0.4 0.7 -0.6
v 0.3 0.7 -0.7
v 0.4 0.7 -0.7
v 0.3 0.7 -0.8
v 0.4 0.7 -0.8
v 0.4 0.8 -0.5
v 0.5 0.8 -0.5
v 0 0.8 -0.6
v 0.1 0.8 -0.6
v 0.4 0.8 -0.6
v 0.5 0.8 -0.6
v 0.6 0.8 -0.6
v 0 0.8 -0.7
v 0.1 0.8 -0.7
v 0.4 0.8 -0.7
v 0.5 0.8 -0.7
v 0.6 0.8 -0.7
v 0.4 0.8 -0.8
v 0.5 0.8 -0.8
v 0.5 0.9 -0.5
v 0.6 0.9 -0.5
v -0.1 0.9 -0.6
v 0 0.9 -0.6
v 0.5 0.9 -0.6
v 0.6 0.9 -0.6
v 0.7 0.9 -0.6
v -0.1 0.9 -0.7
v 0 0.9 -0.7
v 0.5 0.9 -0.7
v 0.6 0.9 -0.7
v 0.7 0.9 -0.7
v 0.5 0.9 -0.8
v 0.6 0.9 -0.8
v -0.2 1 -0.6
v -0.1 1 -0.6
v -0.2 1 -0.7
v -0.1 1 -0.7
v -0.3 1.1 -0.6
v -0.2 1.1 -0.6
v -0.3 1.1 -0.7
v -0.2 1.1 -0.7
v -0.4 1.2 -0.6
v -0.3 1.2 -0.6
v -0.4 1.2 -0.7
v -0.3 1.2 -0.7
v -0.5 1.3 -0.6
v -0.4 1.3 -0.6
v -0.5 1.3 -0.7
v -0.4 1.3 -0.7
v -0.6 1.4 -0.6
v -0.5 1.4 -0.6
v -0.6 1.4 -0.7
v -0.5 1.4 -0.7
v 0.7 0.5 -0.6
v 0.8 0.5 -0.6
v 0.7 0.5 -0.7
v 0.8 0.5 -0.7
v 0 0.6 -0.5
v 0.2 0.6 -0.5
v -0.1 0.6 -0.6
v 0 0.6 -0.6
v 0.2 0.6 -0.6
v 0.6 0.6 -0.6
v 0.7 0.6 -0.6
v -0.1 0.6 -0.7
v 0 0.6 -0.7
v 0.2 0.6 -0.7
v 0.6 0.6 -0.7
v 0.7 0.6 -0.7
v 0 0.6 -0.8
v 0.2 0.6 -0.8
v 0.2 0.7 -0.5
v 0.3 0.7 -0.5
v 0 0.7 -0.6
v 0.1 0.7 -0.6
v 0.2 0.7 -0.6
v 0.3 0.7 -0.6
v 0.5 0.7 -0.6
v 0.6 0.7 -0.6
v 0 0.7 -0.7
v 0.1 0.7 -0.7
v 0.2 0.7 -0.7
v 0.3 0.7 -0.7
v 0.5 0.7 -0.7
v 0.6 0.7 -0.7
v 0.2 0.7 -0.8
v 0.3 0.7 -0.8
v 0.3 0.8 -0.5
v 0.4 0.8 -0.5
v 0.3 0.8 -0.6
v 0.4 0.8 -0.6
v 0.3 0.8 -0.7
v 0.4 0.8 -0.7
v 0.3 0.8 -0.8
v 0.4 0.8 -0.8
v 0.4 0.9 -0.5
v 0.5 0.9 -0.5
v 0.4 0.9 -0.6
v 0.5 0.9 -0.6
v 0.4 0.9 -0.7
v 0.5 0.9 -0.7
v 0.4 0.9 -0.8
v 0.5 0.9 -0.8
v 0.3 1 -0.6
v 0.4 1 -0.6
v 0.3 1 -0.7
v 0.4 1 -0.7
v 0.5 1.1 -0.5
v 0.6 1.1 -0.5
v 0.2 1.1 -0.6
v 0.3 1.1 -0.6
v 0.4 1.1 -0.6
v 0.5 1.1 -0.6
v 0.6 1.1 -0.6
v 0.7 1.1 -0.6
v 0.2 1.1 -0.7
v 0.3 1.1 -0.7
v 0.4 1.1 -0.7
v 0.5 1.1 -0.7
v 0.6 1.1 -0.7
v 0.7 1.1 -0.7
v 0.5 1.1 -0.8
v 0.6 1.1 -0.8
v 0.1 1.2 -0.6
v 0.2 1.2 -0.6
v 0.5 1.2 -0.6
v 0.6 1.2 -0.6
v 0.1 1.2 -0.7
v 0.2 1.2 -0.7
v 0.5 1.2 -0.7
v 0.6 1.2 -0.7
v 0 1.3 -0.6
v 0.1 1.3 -0.6
v 0 1.3 -0.7
v 0.1 1.3 -0.7
v -0.1 1.4 -0.6
v 0 1.4 -0.6
v -0.1 1.4 -0.7
v 0 1.4 -0.7
v -0.2 1.5 -0.6
v -0.1 1.5 -0.6
v -0.2 1.5 -0.7
v -0.1 1.5 -0.7
v -0.3 1.6 -0.6
v -0.2 1.6 -0.6
v -0.3 1.6 -0.7
v -0.2 1.6 -0.7
v -0.6 1.7 -0.6
v -0.3 1.7 -0.6
v -0.6 1.7 -0.7
v -0.3 1.7 -0.7

# faces
f 3/3/1 2/3/1 1/3/1
f 4/3/1 2/3/1 3/3/1
f 7/3/1 6/3/1 5/3/1
f 8/3/1 6/3/1 7/3/1
f 11/3/1 10/3/1 9/3/1
f 12/3/1 10/3/1 11/3/1
f 15/3/1 14/3/1 13/3/1
f 16/3/1 14/3/1 15/3/1
f 19/3/1 18/3/1 17/3/1
f 20/3/1 18/3/1 19/3/1
f 23/2/1 22/2/1 21/2/1
f 24/2/1 22/2/1 23/2/1
f 27/3/1 26/3/1 25/3/1
f 28/3/1 26/3/1 27/3/1
f 32/2/1 30/2/1 29/2/1
f 33/2/1 30/2/1 32/2/1
f 35/2/1 32/2/1 31/2/1
f 36/2/1 32/2/1 35/2/1
f 37/2/1 34/2/1 33/2/1
f 38/2/1 34/2/1 37/2/1
f 39/2/1 37/2/1 36/2/1
f 40/2/1 37/2/1 39/2/1
f 43/3/1 42/3/1 41/3/1
f 44/3/1 42/3/1 43/3/1
f 47/3/1 46/3/1 45/3/1
f 48/3/1 46/3/1 47/3/1
f 53/2/1 50/2/1 49/2/1
f 54/2/1 50/2/1 53/2/1
f 55/2/1 52/2/1 51/2/1
f 56/2/1 52/2/1 55/2/1
f 61/2/1 58/2/1 57/2/1
f 62/2/1 58/2/1 61/2/1
f 63/2/1 60/2/1 59/2/1
f 64/2/1 60/2/1 63/2/1
f 67/1/1 66/1/1 65/1/1
f 68/1/1 66/1/1 67/1/1
f 73/2/1 70/2/1 69/2/1
f 74/2/1 70/2/1 73/2/1
f 75/2/1 72/2/1 71/2/1
f 76/2/1 72/2/1 75/2/1
f 79/2/1 78/2/1 77/2/1
f 80/2/1 78/2/1 79/2/1
f 83/1/1 82/1/1 81/1/1
f 84/1/1 82/1/1 83/1/1
f 89/2/1 86/2/1 85/2/1
f 90/2/1 86/2/1 89/2/1
f 91/2/1 88/2/1 87/2/1
f 92/2/1 88/2/1 91/2/1
f 93/2/1 91/2/1 90/2/1
f 94/2/1 91/2/1 93/2/1
f 97/1/1 96/1/1 95/1/1
f 98/1/1 96/1/1 97/1/1
f 99/3/2 100/3/2 101/3/2
f 101/3/2 100/3/2 102/3/2
f 103/3/2 104/3/2 105/3/2
f 105/3/2 104/3/2 106/3/2
f 107/3/2 108/3/2 109/3/2
f 109/3/2 108/3/2 110/3/2
f 111/3/2 112/3/2 113/3/2
f 113/3/2 112/3/2 114/3/2
f 115/3/2 116/3/2 117/3/2
f 117/3/2 116/3/2 118/3/2
f 119/2/2 120/2/2 122/2/2
f 122/2/2 120/2/2 123/2/2
f 121/2/2 122/2/2 125/2/2
f 125/2/2 122/2/2 126/2/2
f 123/2/2 124/2/2 127/2/2
f 127/2/2 124/2/2 128/2/2
f 129/3/2 130/3/2 131/3/2
f 131/3/2 130/3/2 132/3/2
f 133/2/2 134/2/2 136/2/2
f 136/2/2 134/2/2 137/2/2
f 135/2/2 136/2/2 139/2/2
f 139/2/2 136/2/2 140/2/2
f 137/2/2 138/2/2 141/2/2
f 141/2/2 138/2/2 142/2/2
f 143/3/2 144/3/2 145/3/2
f 145/3/2 144/3/2 146/3/2
f 147/2/2 148/2/2 151/2/2
f 151/2/2 148/2/2 152/2/2
f 149/2/2 150/2/2 153/2/2
f 153/2/2 150/2/2 154/2/2
f 155/2/2 156/2/2 158/2/2
f 158/2/2 156/2/2 159/2/2
f 157/2/2 158/2/2 161/2/2
f 161/2/2 158/2/2 162/2/2
f 159/2/2 160/2/2 163/2/2
f 163/2/2 160/2/2 164/2/2
f 165/1/2 166/1/2 167/1/2
f 167/1/2 166/1/2 168/1/2
f 169/2/2 170/2/2 172/2/2
f 172/2/2 170/2/2 173/2/2
f 171/2/2 172/2/2 175/2/2
f 175/2/2 172/2/2 176/2/2
f 173/2/2 174/2/2 177/2/2
f 177/2/2 174/2/2 178/2/2
f 176/2/2 177/2/2 179/2/2
f 179/2/2 177/2/2 180/2/2
f 181/1/2 182/1/2 183/1/2
f 183/1/2 182/1/2 184/1/2
f 185/2/2 186/2/2 187/2/2
f 187/2/2 186/2/2 188/2/2
f 189/1/2 190/1/2 191/1/2
f 191/1/2 190/1/2 192/1/2
f 195/2/3 194/2/3 193/2/3
f 196/2/3 194/2/3 195/2/3
f 198/2/3 197/2/3 196/2/3
f 199/2/3 197/2/3 198/2/3
f 201/2/3 200/2/3 199/2/3
f 202/2/3 200/2/3 201/2/3
f 204/2/3 203/2/3 202/2/3
f 205/2/3 203/2/3 204/2/3
f 207/2/3 206/2/3 205/2/3
f 208/2/3 206/2/3 207/2/3
f 212/3/3 210/3/3 209/3/3
f 213/3/3 210/3/3 212/3/3
f 214/3/3 210/3/3 213/3/3
f 216/3/3 212/3/3 211/3/3
f 216/3/3 213/3/3 212/3/3
f 217/3/3 213/3/3 216/3/3
f 218/4/3 214/4/3 213/4/3
f 218/3/3 213/3/3 217/3/3
f 219/3/3 210/3/3 214/3/3
f 219/4/3 214/4/3 218/4/3
f 221/3/3 217/3/3 216/3/3
f 221/3/3 216/3/3 215/3/3
f 222/3/3 217/3/3 221/3/3
f 223/4/3 218/4/3 217/4/3
f 223/3/3 217/3/3 222/3/3
f 224/3/3 219/3/3 218/3/3
f 224/4/3 218/4/3 223/4/3
f 225/3/3 210/3/3 219/3/3
f 225/3/3 219/3/3 224/3/3
f 226/3/3 210/3/3 225/3/3
f 228/3/3 222/3/3 221/3/3
f 228/3/3 221/3/3 220/3/3
f 229/3/3 222/3/3 228/3/3
f 230/4/3 223/4/3 222/4/3
f 230/3/3 222/3/3 229/3/3
f 231/3/3 224/3/3 223/3/3
f 231/4/3 223/4/3 230/4/3
f 231/3/3 225/3/3 224/3/3
f 232/3/3 225/3/3 231/3/3
f 233/3/3 225/3/3 232/3/3
f 237/3/3 229/3/3 228/3/3
f 237/3/3 228/3/3 227/3/3
f 238/3/3 229/3/3 237/3/3
f 239/4/3 230/4/3 229/4/3
f 239/3/3 229/3/3 238/3/3
f 240/3/3 231/3/3 230/3/3
f 240/4/3 230/4/3 239/4/3
f 240/3/3 232/3/3 231/3/3
f 241/3/3 232/3/3 240/3/3
f 242/3/3 232/3/3 241/3/3
f 244/2/3 235/2/3 234/2/3
f 245/2/3 235/2/3 244/2/3
f 248/3/3 238/3/3 237/3/3
f 248/3/3 237/3/3 236/3/3
f 249/3/3 238/3/3 248/3/3
f 250/4/3 239/4/3 238/4/3
f 250/3/3 238/3/3 249/3/3
f 251/3/3 240/3/3 239/3/3
f 251/4/3 239/4/3 250/4/3
f 251/3/3 241/3/3 240/3/3
f 252/3/3 241/3/3 251/3/3
f 253/3/3 241/3/3 252/3/3
f 254/2/3 246/2/3 245/2/3
f 255/3/3 249/3/3 248/3/3
f 255/3/3 248/3/3 247/3/3
f 256/3/3 249/3/3 255/3/3
f 257/4/3 250/4/3 249/4/3
f 257/3/3 249/3/3 256/3/3
f 258/3/3 252/3/3 251/3/3
f 258/4/3 250/4/3 257/4/3
f 258/3/3 251/3/3 250/3/3
f 259/3/3 252/3/3 258/3/3
f 260/3/3 252/3/3 259/3/3
f 261/2/3 244/2/3 243/2/3
f 262/2/3 244/2/3 261/2/3
f 263/2/3 254/2/3 245/2/3
f 264/3/3 256/3/3 255/3/3
f 264/3/3 255/3/3 254/3/3
f 264/2/3 254/2/3 263/2/3
f 265/3/3 256/3/3 264/3/3
f 266/4/3 257/4/3 256/4/3
f 266/3/3 256/3/3 265/3/3
f 267/3/3 258/3/3 257/3/3
f 267/4/3 257/4/3 266/4/3
f 267/3/3 259/3/3 258/3/3
f 268/3/3 259/3/3 267/3/3
f 269/3/3 259/3/3 268/3/3
f 270/2/3 263/2/3 262/2/3
f 271/2/3 263/2/3 270/2/3
f 272/2/3 265/2/3 264/2/3
f 273/4/3 266/4/3 265/4/3
f 273/2/3 265/2/3 272/2/3
f 274/3/3 268/3/3 267/3/3
f 274/4/3 266/4/3 273/4/3
f 274/3/3 267/3/3 266/3/3
f 275/3/3 268/3/3 274/3/3
f 276/3/3 268/3/3 275/3/3
f 278/2/3 272/2/3 271/2/3
f 279/2/3 272/2/3 278/2/3
f 280/2/3 274/2/3 273/2/3
f 281/3/3 275/3/3 274/3/3
f 281/2/3 274/2/3 280/2/3
f 282/3/3 275/3/3 281/3/3
f 285/1/3 279/1/3 278/1/3
f 285/1/3 278/1/3 277/1/3
f 286/2/3 280/2/3 279/2/3
f 286/1/3 279/1/3 285/1/3
f 287/2/3 280/2/3 286/2/3
f 288/2/3 282/2/3 281/2/3
f 288/2/3 283/2/3 282/2/3
f 289/2/3 283/2/3 288/2/3
f 292/1/3 285/1/3 284/1/3
f 292/1/3 286/1/3 285/1/3
f 293/1/3 286/1/3 292/1/3
f 294/1/3 286/1/3 293/1/3
f 295/2/3 288/2/3 287/2/3
f 296/2/3 288/2/3 295/2/3
f 297/2/3 290/2/3 289/2/3
f 298/2/3 290/2/3 297/2/3
f 299/1/3 292/1/3 291/1/3
f 299/1/3 293/1/3 292/1/3
f 300/1/3 293/1/3 299/1/3
f 301/2/3 297/2/3 296/2/3
f 302/2/3 297/2/3 301/2/3
f 303/1/3 299/1/3 291/1/3
f 304/1/3 299/1/3 303/1/3
f 305/3/4 306/3/4 308/3/4
f 308/3/4 306/3/4 309/3/4
f 309/3/4 306/3/4 310/3/4
f 307/3/4 308/3/4 312/3/4
f 308/3/4 309/3/4 312/3/4
f 312/3/4 309/3/4 313/3/4
f 309/4/4 310/4/4 314/4/4
f 313/3/4 309/3/4 314/3/4
f 310/3/4 306/3/4 315/3/4
f 314/4/4 310/4/4 315/4/4
f 312/3/4 313/3/4 317/3/4
f 311/3/4 312/3/4 317/3/4
f 317/3/4 313/3/4 318/3/4
f 313/4/4 314/4/4 319/4/4
f 318/3/4 313/3/4 319/3/4
f 314/3/4 315/3/4 320/3/4
f 319/4/4 314/4/4 320/4/4
f 315/3/4 306/3/4 321/3/4
f 320/3/4 315/3/4 321/3/4
f 321/3/4 306/3/4 322/3/4
f 317/3/4 318/3/4 324/3/4
f 316/3/4 317/3/4 324/3/4
f 324/3/4 318/3/4 325/3/4
f 318/4/4 319/4/4 326/4/4
f 325/3/4 318/3/4 326/3/4
f 319/3/4 320/3/4 327/3/4
f 326/4/4 319/4/4 327/4/4
f 320/3/4 321/3/4 327/3/4
f 327/3/4 321/3/4 328/3/4
f 328/3/4 321/3/4 329/3/4
f 324/3/4 325/3/4 333/3/4
f 323/3/4 324/3/4 333/3/4
f 333/3/4 325/3/4 334/3/4
f 325/4/4 326/4/4 335/4/4
f 334/3/4 325/3/4 335/3/4
f 326/3/4 327/3/4 336/3/4
f 335/4/4 326/4/4 336/4/4
f 327/3/4 328/3/4 336/3/4
f 336/3/4 328/3/4 337/3/4
f 337/3/4 328/3/4 338/3/4
f 330/2/4 331/2/4 340/2/4
f 340/2/4 331/2/4 341/2/4
f 333/3/4 334/3/4 344/3/4
f 332/3/4 333/3/4 344/3/4
f 344/3/4 334/3/4 345/3/4
f 334/4/4 335/4/4 346/4/4
f 345/3/4 334/3/4 346/3/4
f 335/3/4 336/3/4 347/3/4
f 346/4/4 335/4/4 347/4/4
f 336/3/4 337/3/4 347/3/4
f 347/3/4 337/3/4 348/3/4
f 348/3/4 337/3/4 349/3/4
f 341/2/4 342/2/4 350/2/4
f 344/3/4 345/3/4 351/3/4
f 343/3/4 344/3/4 351/3/4
f 351/3/4 345/3/4 352/3/4
f 345/4/4 346/4/4 353/4/4
f 352/3/4 345/3/4 353/3/4
f 347/3/4 348/3/4 354/3/4
f 353/4/4 346/4/4 354/4/4
f 346/3/4 347/3/4 354/3/4
f 354/3/4 348/3/4 355/3/4
f 355/3/4 348/3/4 356/3/4
f 339/2/4 340/2/4 357/2/4
f 357/2/4 340/2/4 358/2/4
f 341/2/4 350/2/4 359/2/4
f 351/3/4 352/3/4 360/3/4
f 350/3/4 351/3/4 360/3/4
f 359/2/4 350/2/4 360/2/4
f 360/3/4 352/3/4 361/3/4
f 352/4/4 353/4/4 362/4/4
f 361/3/4 352/3/4 362/3/4
f 353/3/4 354/3/4 363/3/4
f 362/4/4 353/4/4 363/4/4
f 354/3/4 355/3/4 363/3/4
f 363/3/4 355/3/4 364/3/4
f 364/3/4 355/3/4 365/3/4
f 358/2/4 359/2/4 366/2/4
f 366/2/4 359/2/4 367/2/4
f 360/2/4 361/2/4 368/2/4
f 361/4/4 362/4/4 369/4/4
f 368/2/4 361/2/4 369/2/4
f 363/3/4 364/3/4 370/3/4
f 369/4/4 362/4/4 370/4/4
f 362/3/4 363/3/4 370/3/4
f 370/3/4 364/3/4 371/3/4
f 371/3/4 364/3/4 372/3/4
f 367/2/4 368/2/4 374/2/4
f 374/2/4 368/2/4 375/2/4
f 369/2/4 370/2/4 376/2/4
f 370/3/4 371/3/4 377/3/4
f 376/2/4 370/2/4 377/2/4
f 377/3/4 371/3/4 378/3/4
f 374/1/4 375/1/4 381/1/4
f 373/1/4 374/1/4 381/1/4
f 375/2/4 376/2/4 382/2/4
f 381/1/4 375/1/4 382/1/4
f 382/2/4 376/2/4 383/2/4
f 377/2/4 378/2/4 384/2/4
f 378/2/4 379/2/4 384/2/4
f 384/2/4 379/2/4 385/2/4
f 380/1/4 381/1/4 388/1/4
f 381/1/4 382/1/4 388/1/4
f 388/1/4 382/1/4 389/1/4
f 389/1/4 382/1/4 390/1/4
f 383/2/4 384/2/4 391/2/4
f 391/2/4 384/2/4 392/2/4
f 385/2/4 386/2/4 393/2/4
f 393/2/4 386/2/4 394/2/4
f 387/1/4 388/1/4 395/1/4
f 388/1/4 389/1/4 395/1/4
f 395/1/4 389/1/4 396/1/4
f 392/2/4 393/2/4 397/2/4
f 397/2/4 393/2/4 398/2/4
f 387/1/4 395/1/4 399/1/4
f 399/1/4 395/1/4 400/1/4
f 401/2/4 402/2/4 403/2/4
f 403/2/4 402/2/4 404/2/4
f 404/2/4 405/2/4 406/2/4
f 406/2/4 405/2/4 407/2/4
f 407/2/4 408/2/4 409/2/4
f 409/2/4 408/2/4 410/2/4
f 410/2/4 411/2/4 412/2/4
f 412/2/4 411/2/4 413/2/4
f 413/2/4 414/2/4 415/2/4
f 415/2/4 414/2/4 416/2/4
f 419/1/5 418/1/5 417/1/5
f 420/1/5 418/1/5 419/1/5
f 425/2/5 422/2/5 421/2/5
f 426/2/5 422/2/5 425/2/5
f 427/1/5 424/1/5 423/1/5
f 428/1/5 424/1/5 427/1/5
f 432/2/5 430/2/5 429/2/5
f 433/2/5 430/2/5 432/2/5
f 437/2/5 432/2/5 431/2/5
f 438/2/5 432/2/5 437/2/5
f 439/2/5 434/2/5 433/2/5
f 440/2/5 434/2/5 439/2/5
f 441/1/5 436/1/5 435/1/5
f 442/1/5 436/1/5 441/1/5
f 443/2/5 439/2/5 438/2/5
f 444/2/5 439/2/5 443/2/5
f 447/2/5 446/2/5 445/2/5
f 448/2/5 446/2/5 447/2/5
f 451/2/5 449/2/5 448/2/5
f 452/2/5 449/2/5 451/2/5
f 453/2/5 451/2/5 450/2/5
f 454/2/5 451/2/5 453/2/5
f 457/2/5 456/2/5 455/2/5
f 458/2/5 456/2/5 457/2/5
f 461/2/5 460/2/5 459/2/5
f 462/2/5 460/2/5 461/2/5
f 467/2/5 464/2/5 463/2/5
f 468/2/5 464/2/5 467/2/5
f 470/3/5 466/3/5 465/3/5
f 471/3/5 466/3/5 470/3/5
f 473/2/5 469/2/5 468/2/5
f 474/2/5 469/2/5 473/2/5
f 475/2/5 473/2/5 472/2/5
f 476/2/5 473/2/5 475/2/5
f 481/2/5 478/2/5 477/2/5
f 482/2/5 478/2/5 481/2/5
f 484/3/5 480/3/5 479/3/5
f 485/3/5 480/3/5 484/3/5
f 487/2/5 483/2/5 482/2/5
f 488/2/5 483/2/5 487/2/5
f 489/2/5 487/2/5 486/2/5
f 490/2/5 487/2/5 489/2/5
f 493/3/5 492/3/5 491/3/5
f 494/3/5 492/3/5 493/3/5
f 497/3/5 496/3/5 495/3/5
f 498/3/5 496/3/5 497/3/5
f 501/3/5 500/3/5 499/3/5
f 502/3/5 500/3/5 501/3/5
f 505/3/5 504/3/5 503/3/5
f 506/3/5 504/3/5 505/3/5
f 509/3/5 508/3/5 507/3/5
f 510/3/5 508/3/5 509/3/5
f 511/1/6 512/1/6 513/1/6
f 513/1/6 512/1/6 514/1/6
f 515/2/6 516/2/6 518/2/6
f 518/2/6 516/2/6 519/2/6
f 517/2/6 518/2/6 522/2/6
f 522/2/6 518/2/6 523/2/6
f 520/1/6 521/1/6 525/1/6
f 525/1/6 521/1/6 526/1/6
f 523/2/6 524/2/6 527/2/6
f 527/2/6 524/2/6 528/2/6
f 529/2/6 530/2/6 533/2/6
f 533/2/6 530/2/6 534/2/6
f 531/2/6 532/2/6 537/2/6
f 537/2/6 532/2/6 538/2/6
f 535/1/6 536/1/6 541/1/6
f 541/1/6 536/1/6 542/1/6
f 539/2/6 540/2/6 543/2/6
f 543/2/6 540/2/6 544/2/6
f 545/2/6 546/2/6 547/2/6
f 547/2/6 546/2/6 548/2/6
f 549/2/6 550/2/6 551/2/6
f 551/2/6 550/2/6 552/2/6
f 553/2/6 554/2/6 555/2/6
f 555/2/6 554/2/6 556/2/6
f 557/2/6 558/2/6 559/2/6
f 559/2/6 558/2/6 560/2/6
f 561/3/6 562/3/6 563/3/6
f 563/3/6 562/3/6 564/3/6
f 565/2/6 566/2/6 570/2/6
f 570/2/6 566/2/6 571/2/6
f 567/3/6 568/3/6 573/3/6
f 573/3/6 568/3/6 574/3/6
f 569/2/6 570/2/6 575/2/6
f 575/2/6 570/2/6 576/2/6
f 571/2/6 572/2/6 577/2/6
f 577/2/6 572/2/6 578/2/6
f 576/2/6 577/2/6 579/2/6
f 579/2/6 577/2/6 580/2/6
f 581/3/6 582/3/6 585/3/6
f 585/3/6 582/3/6 586/3/6
f 583/2/6 584/2/6 587/2/6
f 587/2/6 584/2/6 588/2/6
f 589/3/6 590/3/6 591/3/6
f 591/3/6 590/3/6 592/3/6
f 593/3/6 594/3/6 595/3/6
f 595/3/6 594/3/6 596/3/6
f 597/3/6 598/3/6 599/3/6
f 599/3/6 598/3/6 600/3/6
f 601/3/6 602/3/6 603/3/6
f 603/3/6 602/3/6 604/3/6
f 605/3/6 606/3/6 607/3/6
f 607/3/6 606/3/6 608/3/6
