# MagicaVoxel @ Ephtracy

# group
o 

# material
mtllib sword.mtl
usemtl palette

# normals
vn -1 0 0
vn 1 0 0
vn 0 0 1
vn 0 0 -1
vn 0 -1 0
vn 0 1 0

# texcoords
vt 0.271484 0.5
vt 0.384766 0.5
vt 0.974609 0.5

# verts
v -0.6 0.6 0.1
v -0.6 0.6 -0.1
v -0.6 0.8 0.1
v -0.6 0.8 -0.1
v -0.4 0.5 0.1
v -0.4 0.5 -0.1
v -0.4 0.6 0.1
v -0.4 0.6 -0.1
v -0.2 0 0.1
v -0.2 0 -0.1
v -0.2 0.5 0.1
v -0.2 0.5 -0.1
v -0.2 0.7 0.1
v -0.2 0.7 -0.1
v -0.2 1.5 0.1
v -0.2 1.5 -1.49012e-08
v -0.2 2 -1.49012e-08
v -0.2 2 -0.1
v 0.3 0.7 0.1
v 0.3 0.7 -0.1
v 0.3 0.8 0.1
v 0.3 0.8 -0.1
v -0.5 0.7 0.1
v -0.5 0.7 -0.1
v -0.5 0.8 0.1
v -0.5 0.8 -0.1
v 0 0 0.1
v 0 0 -0.1
v 0 0.5 0.1
v 0 0.5 -0.1
v 0 0.7 0.1
v 0 0.7 -0.1
v 0 1.5 0.1
v 0 1.5 -1.49012e-08
v 0 2 -1.49012e-08
v 0 2 -0.1
v 0.2 0.5 0.1
v 0.2 0.5 -0.1
v 0.2 0.6 0.1
v 0.2 0.6 -0.1
v 0.4 0.6 0.1
v 0.4 0.6 -0.1
v 0.4 0.8 0.1
v 0.4 0.8 -0.1
v -0.6 0.6 0.1
v -0.6 0.8 0.1
v -0.5 0.7 0.1
v -0.5 0.8 0.1
v -0.4 0.5 0.1
v -0.4 0.6 0.1
v -0.2 0 0.1
v -0.2 0.5 0.1
v -0.2 0.6 0.1
v -0.2 0.7 0.1
v -0.2 1.5 0.1
v 0 0 0.1
v 0 0.5 0.1
v 0 0.6 0.1
v 0 0.7 0.1
v 0 1.5 0.1
v 0.2 0.5 0.1
v 0.2 0.6 0.1
v 0.3 0.7 0.1
v 0.3 0.8 0.1
v 0.4 0.6 0.1
v 0.4 0.8 0.1
v -0.2 1.5 -1.49012e-08
v -0.2 2 -1.49012e-08
v 0 1.5 -1.49012e-08
v 0 2 -1.49012e-08
v -0.6 0.6 -0.1
v -0.6 0.8 -0.1
v -0.5 0.7 -0.1
v -0.5 0.8 -0.1
v -0.4 0.5 -0.1
v -0.4 0.6 -0.1
v -0.2 0 -0.1
v -0.2 0.5 -0.1
v -0.2 0.6 -0.1
v -0.2 0.7 -0.1
v -0.2 2 -0.1
v 0 0 -0.1
v 0 0.5 -0.1
v 0 0.6 -0.1
v 0 0.7 -0.1
v 0 2 -0.1
v 0.2 0.5 -0.1
v 0.2 0.6 -0.1
v 0.3 0.7 -0.1
v 0.3 0.8 -0.1
v 0.4 0.6 -0.1
v 0.4 0.8 -0.1
v -0.2 0 0.1
v 0 0 0.1
v -0.2 0 -0.1
v 0 0 -0.1
v -0.4 0.5 0.1
v -0.2 0.5 0.1
v 0 0.5 0.1
v 0.2 0.5 0.1
v -0.4 0.5 -0.1
v -0.2 0.5 -0.1
v 0 0.5 -0.1
v 0.2 0.5 -0.1
v -0.6 0.6 0.1
v -0.4 0.6 0.1
v 0.2 0.6 0.1
v 0.4 0.6 0.1
v -0.6 0.6 -0.1
v -0.4 0.6 -0.1
v 0.2 0.6 -0.1
v 0.4 0.6 -0.1
v -0.5 0.7 0.1
v -0.2 0.7 0.1
v 0 0.7 0.1
v 0.3 0.7 0.1
v -0.5 0.7 -0.1
v -0.2 0.7 -0.1
v 0 0.7 -0.1
v 0.3 0.7 -0.1
v -0.6 0.8 0.1
v -0.5 0.8 0.1
v 0.3 0.8 0.1
v 0.4 0.8 0.1
v -0.6 0.8 -0.1
v -0.5 0.8 -0.1
v 0.3 0.8 -0.1
v 0.4 0.8 -0.1
v -0.2 1.5 0.1
v 0 1.5 0.1
v -0.2 1.5 -1.49012e-08
v 0 1.5 -1.49012e-08
v -0.2 2 -1.49012e-08
v 0 2 -1.49012e-08
v -0.2 2 -0.1
v 0 2 -0.1

# faces
f 3/2/1 2/2/1 1/2/1
f 4/2/1 2/2/1 3/2/1
f 7/2/1 6/2/1 5/2/1
f 8/2/1 6/2/1 7/2/1
f 11/1/1 10/1/1 9/1/1
f 12/1/1 10/1/1 11/1/1
f 15/3/1 14/3/1 13/3/1
f 16/3/1 14/3/1 15/3/1
f 17/3/1 14/3/1 16/3/1
f 18/3/1 14/3/1 17/3/1
f 21/2/1 20/2/1 19/2/1
f 22/2/1 20/2/1 21/2/1
f 23/2/2 24/2/2 25/2/2
f 25/2/2 24/2/2 26/2/2
f 27/1/2 28/1/2 29/1/2
f 29/1/2 28/1/2 30/1/2
f 31/3/2 32/3/2 33/3/2
f 33/3/2 32/3/2 34/3/2
f 34/3/2 32/3/2 35/3/2
f 35/3/2 32/3/2 36/3/2
f 37/2/2 38/2/2 39/2/2
f 39/2/2 38/2/2 40/2/2
f 41/2/2 42/2/2 43/2/2
f 43/2/2 42/2/2 44/2/2
f 47/2/3 46/2/3 45/2/3
f 48/2/3 46/2/3 47/2/3
f 50/2/3 47/2/3 45/2/3
f 52/2/3 50/2/3 49/2/3
f 53/2/3 47/2/3 50/2/3
f 53/2/3 50/2/3 52/2/3
f 54/2/3 47/2/3 53/2/3
f 56/1/3 52/1/3 51/1/3
f 57/2/3 53/2/3 52/2/3
f 57/1/3 52/1/3 56/1/3
f 58/3/3 54/3/3 53/3/3
f 58/2/3 53/2/3 57/2/3
f 58/3/3 55/3/3 54/3/3
f 59/3/3 55/3/3 58/3/3
f 60/3/3 55/3/3 59/3/3
f 61/2/3 58/2/3 57/2/3
f 61/2/3 59/2/3 58/2/3
f 62/2/3 59/2/3 61/2/3
f 63/2/3 59/2/3 62/2/3
f 65/2/3 63/2/3 62/2/3
f 65/2/3 64/2/3 63/2/3
f 66/2/3 64/2/3 65/2/3
f 69/3/3 68/3/3 67/3/3
f 70/3/3 68/3/3 69/3/3
f 71/2/4 72/2/4 73/2/4
f 73/2/4 72/2/4 74/2/4
f 71/2/4 73/2/4 76/2/4
f 75/2/4 76/2/4 78/2/4
f 76/2/4 73/2/4 79/2/4
f 78/2/4 76/2/4 79/2/4
f 79/2/4 73/2/4 80/2/4
f 77/1/4 78/1/4 82/1/4
f 78/2/4 79/2/4 83/2/4
f 82/1/4 78/1/4 83/1/4
f 79/3/4 80/3/4 84/3/4
f 83/2/4 79/2/4 84/2/4
f 80/3/4 81/3/4 84/3/4
f 84/3/4 81/3/4 85/3/4
f 85/3/4 81/3/4 86/3/4
f 83/2/4 84/2/4 87/2/4
f 84/2/4 85/2/4 87/2/4
f 87/2/4 85/2/4 88/2/4
f 88/2/4 85/2/4 89/2/4
f 88/2/4 89/2/4 91/2/4
f 89/2/4 90/2/4 91/2/4
f 91/2/4 90/2/4 92/2/4
f 95/1/5 94/1/5 93/1/5
f 96/1/5 94/1/5 95/1/5
f 101/2/5 98/2/5 97/2/5
f 102/2/5 98/2/5 101/2/5
f 103/2/5 100/2/5 99/2/5
f 104/2/5 100/2/5 103/2/5
f 109/2/5 106/2/5 105/2/5
f 110/2/5 106/2/5 109/2/5
f 111/2/5 108/2/5 107/2/5
f 112/2/5 108/2/5 111/2/5
f 113/2/6 114/2/6 117/2/6
f 117/2/6 114/2/6 118/2/6
f 115/2/6 116/2/6 119/2/6
f 119/2/6 116/2/6 120/2/6
f 121/2/6 122/2/6 125/2/6
f 125/2/6 122/2/6 126/2/6
f 123/2/6 124/2/6 127/2/6
f 127/2/6 124/2/6 128/2/6
f 129/3/6 130/3/6 131/3/6
f 131/3/6 130/3/6 132/3/6
f 133/3/6 134/3/6 135/3/6
f 135/3/6 134/3/6 136/3/6
