# MagicaVoxel @ Ephtracy

# group
o 

# material
mtllib reed.mtl
usemtl palette

# normals
vn -1 0 0
vn 1 0 0
vn 0 0 1
vn 0 0 -1
vn 0 -1 0
vn 0 1 0

# texcoords
vt 0.369141 0.5
vt 0.888672 0.5
vt 0.892578 0.5

# verts
v -0.7 1.6 -0.2
v -0.7 1.6 -0.3
v -0.7 1.7 -0.2
v -0.7 1.7 -0.3
v -0.6 1.3 -0.2
v -0.6 1.3 -0.3
v -0.6 1.6 -0.2
v -0.6 1.6 -0.3
v -0.5 0.9 -0.2
v -0.5 0.9 -0.3
v -0.5 1.3 -0.2
v -0.5 1.3 -0.3
v -0.4 0 -0.2
v -0.4 0 -0.3
v -0.4 0.9 0.8
v -0.4 0.9 0.6
v -0.4 0.9 -0.2
v -0.4 0.9 -0.3
v -0.4 1 0.8
v -0.4 1 0.6
v -0.3 0.7 0.5
v -0.3 0.7 0.4
v -0.3 0.8 0.6
v -0.3 0.8 0.5
v -0.3 0.9 0.6
v -0.3 0.9 0.5
v -0.3 0.9 0.4
v -0.3 1 0.6
v -0.3 1 0.5
v -0.2 0 0.3
v -0.2 0 0.2
v -0.2 0.5 0.4
v -0.2 0.5 0.3
v -0.2 0.6 0.3
v -0.2 0.6 0.2
v -0.2 0.7 0.4
v -0.2 0.8 0.4
v -0.2 0.8 0.3
v -0.2 1.9 0.1
v -0.2 1.9 -0.2
v -0.2 2.5 0.1
v -0.2 2.5 -0.2
v -0.1 0 0
v -0.1 0 -0.1
v -0.1 1.9 0
v -0.1 1.9 -0.1
v -0.1 2.5 0
v -0.1 2.5 -0.1
v -0.1 2.6 0
v -0.1 2.6 -0.1
v 0 0 -0.4
v 0 0 -0.5
v 0 0.5 -0.5
v 0 0.5 -0.6
v 0 0.6 -0.4
v 0 0.6 -0.5
v 0 0.7 -0.6
v 0 0.7 -0.7
v 0 0.8 -0.5
v 0 0.8 -0.6
v 0 0.8 -0.7
v 0 0.8 -0.8
v 0 0.9 -0.6
v 0 0.9 -0.7
v 0 0.9 -0.8
v 0 0.9 -1
v 0 1 -0.7
v 0 1 -1
v 0.1 0 0.3
v 0.1 0 0.2
v 0.1 0.9 0.4
v 0.1 0.9 0.3
v 0.1 1 0.3
v 0.1 1 0.2
v 0.1 1.3 0.4
v 0.1 1.3 0.3
v 0.1 1.4 0.4
v 0.1 1.4 0.3
v 0.2 1.4 0.4
v 0.2 1.4 0.3
v 0.2 1.6 0.5
v 0.2 1.6 0.4
v 0.2 1.7 0.5
v 0.2 1.7 0.3
v 0.3 0 -0.2
v 0.3 0 -0.3
v 0.3 1 -0.2
v 0.3 1 -0.3
v 0.4 1 -0.2
v 0.4 1 -0.3
v 0.4 1.3 -0.2
v 0.4 1.3 -0.3
v 0.4 1.4 -0.2
v 0.4 1.4 -0.3
v 0.5 1.4 -0.2
v 0.5 1.4 -0.3
v 0.5 1.7 -0.2
v 0.5 1.7 -0.3
v -0.5 1.4 -0.2
v -0.5 1.4 -0.3
v -0.5 1.7 -0.2
v -0.5 1.7 -0.3
v -0.4 1 -0.2
v -0.4 1 -0.3
v -0.4 1.3 -0.2
v -0.4 1.3 -0.3
v -0.4 1.4 -0.2
v -0.4 1.4 -0.3
v -0.3 0 -0.2
v -0.3 0 -0.3
v -0.3 0.9 0.8
v -0.3 0.9 0.6
v -0.3 1 0.8
v -0.3 1 0.6
v -0.3 1 -0.2
v -0.3 1 -0.3
v -0.2 0.7 0.5
v -0.2 0.7 0.4
v -0.2 0.8 0.6
v -0.2 0.8 0.5
v -0.2 0.8 0.4
v -0.2 0.9 0.5
v -0.2 0.9 0.4
v -0.2 1 0.6
v -0.2 1 0.5
v -0.1 0 0.3
v -0.1 0 0.2
v -0.1 0.5 0.4
v -0.1 0.5 0.3
v -0.1 0.6 0.3
v -0.1 0.6 0.2
v -0.1 0.8 0.4
v -0.1 0.8 0.3
v 0 0 0
v 0 0 -0.1
v 0 1.9 0
v 0 1.9 -0.1
v 0 2.5 0
v 0 2.5 -0.1
v 0 2.6 0
v 0 2.6 -0.1
v 0.1 0 -0.4
v 0.1 0 -0.5
v 0.1 0.5 -0.5
v 0.1 0.5 -0.6
v 0.1 0.6 -0.4
v 0.1 0.6 -0.5
v 0.1 0.7 -0.6
v 0.1 0.7 -0.7
v 0.1 0.8 -0.5
v 0.1 0.8 -0.6
v 0.1 0.8 -0.7
v 0.1 0.8 -0.8
v 0.1 0.9 -0.6
v 0.1 0.9 -0.7
v 0.1 0.9 -0.8
v 0.1 0.9 -1
v 0.1 1 -0.7
v 0.1 1 -1
v 0.1 1.9 0.1
v 0.1 1.9 -0.2
v 0.1 2.5 0.1
v 0.1 2.5 -0.2
v 0.2 0 0.3
v 0.2 0 0.2
v 0.2 0.9 0.4
v 0.2 0.9 0.3
v 0.2 1 0.3
v 0.2 1 0.2
v 0.2 1.3 0.4
v 0.2 1.3 0.3
v 0.3 1.3 0.4
v 0.3 1.3 0.3
v 0.3 1.6 0.5
v 0.3 1.6 0.4
v 0.3 1.7 0.5
v 0.3 1.7 0.3
v 0.4 0 -0.2
v 0.4 0 -0.3
v 0.4 0.9 -0.2
v 0.4 0.9 -0.3
v 0.5 0.9 -0.2
v 0.5 0.9 -0.3
v 0.5 1.3 -0.2
v 0.5 1.3 -0.3
v 0.6 1.3 -0.2
v 0.6 1.3 -0.3
v 0.6 1.6 -0.2
v 0.6 1.6 -0.3
v 0.7 1.6 -0.2
v 0.7 1.6 -0.3
v 0.7 1.7 -0.2
v 0.7 1.7 -0.3
v -0.4 0.9 0.8
v -0.4 1 0.8
v -0.3 0.9 0.8
v -0.3 1 0.8
v -0.3 0.8 0.6
v -0.3 0.9 0.6
v -0.3 1 0.6
v -0.2 0.8 0.6
v -0.2 1 0.6
v -0.3 0.7 0.5
v -0.3 0.8 0.5
v -0.2 0.7 0.5
v -0.2 0.8 0.5
v 0.2 1.6 0.5
v 0.2 1.7 0.5
v 0.3 1.6 0.5
v 0.3 1.7 0.5
v -0.2 0.5 0.4
v -0.2 0.7 0.4
v -0.2 0.8 0.4
v -0.1 0.5 0.4
v -0.1 0.8 0.4
v 0.1 0.9 0.4
v 0.1 1.3 0.4
v 0.1 1.4 0.4
v 0.2 0.9 0.4
v 0.2 1.3 0.4
v 0.2 1.4 0.4
v 0.2 1.6 0.4
v 0.3 1.3 0.4
v 0.3 1.6 0.4
v -0.2 0 0.3
v -0.2 0.5 0.3
v -0.1 0 0.3
v -0.1 0.5 0.3
v 0.1 0 0.3
v 0.1 0.9 0.3
v 0.2 0 0.3
v 0.2 0.9 0.3
v -0.2 1.9 0.1
v -0.2 2.5 0.1
v 0.1 1.9 0.1
v 0.1 2.5 0.1
v -0.1 0 0
v -0.1 1.9 0
v -0.1 2.5 0
v -0.1 2.6 0
v 0 0 0
v 0 1.9 0
v 0 2.5 0
v 0 2.6 0
v -0.7 1.6 -0.2
v -0.7 1.7 -0.2
v -0.6 1.3 -0.2
v -0.6 1.6 -0.2
v -0.5 0.9 -0.2
v -0.5 1.3 -0.2
v -0.5 1.4 -0.2
v -0.5 1.7 -0.2
v -0.4 0 -0.2
v -0.4 0.9 -0.2
v -0.4 1 -0.2
v -0.4 1.3 -0.2
v -0.4 1.4 -0.2
v -0.3 0 -0.2
v -0.3 1 -0.2
v 0.3 0 -0.2
v 0.3 1 -0.2
v 0.4 0 -0.2
v 0.4 0.9 -0.2
v 0.4 1 -0.2
v 0.4 1.3 -0.2
v 0.4 1.4 -0.2
v 0.5 0.9 -0.2
v 0.5 1.3 -0.2
v 0.5 1.4 -0.2
v 0.5 1.7 -0.2
v 0.6 1.3 -0.2
v 0.6 1.6 -0.2
v 0.7 1.6 -0.2
v 0.7 1.7 -0.2
v 0 0 -0.4
v 0 0.6 -0.4
v 0.1 0 -0.4
v 0.1 0.6 -0.4
v 0 0.6 -0.5
v 0 0.8 -0.5
v 0.1 0.6 -0.5
v 0.1 0.8 -0.5
v 0 0.8 -0.6
v 0 0.9 -0.6
v 0.1 0.8 -0.6
v 0.1 0.9 -0.6
v 0 0.9 -0.7
v 0 1 -0.7
v 0.1 0.9 -0.7
v 0.1 1 -0.7
v -0.4 0.9 0.6
v -0.4 1 0.6
v -0.3 0.9 0.6
v -0.3 1 0.6
v -0.3 0.9 0.5
v -0.3 1 0.5
v -0.2 0.9 0.5
v -0.2 1 0.5
v -0.3 0.7 0.4
v -0.3 0.9 0.4
v -0.2 0.7 0.4
v -0.2 0.8 0.4
v -0.2 0.9 0.4
v -0.2 0.6 0.3
v -0.2 0.8 0.3
v -0.1 0.6 0.3
v -0.1 0.8 0.3
v 0.1 1 0.3
v 0.1 1.3 0.3
v 0.1 1.4 0.3
v 0.2 1 0.3
v 0.2 1.3 0.3
v 0.2 1.4 0.3
v 0.2 1.7 0.3
v 0.3 1.3 0.3
v 0.3 1.7 0.3
v -0.2 0 0.2
v -0.2 0.6 0.2
v -0.1 0 0.2
v -0.1 0.6 0.2
v 0.1 0 0.2
v 0.1 1 0.2
v 0.2 0 0.2
v 0.2 1 0.2
v -0.1 0 -0.1
v -0.1 1.9 -0.1
v -0.1 2.5 -0.1
v -0.1 2.6 -0.1
v 0 0 -0.1
v 0 1.9 -0.1
v 0 2.5 -0.1
v 0 2.6 -0.1
v -0.2 1.9 -0.2
v -0.2 2.5 -0.2
v 0.1 1.9 -0.2
v 0.1 2.5 -0.2
v -0.7 1.6 -0.3
v -0.7 1.7 -0.3
v -0.6 1.3 -0.3
v -0.6 1.6 -0.3
v -0.5 0.9 -0.3
v -0.5 1.3 -0.3
v -0.5 1.4 -0.3
v -0.5 1.7 -0.3
v -0.4 0 -0.3
v -0.4 0.9 -0.3
v -0.4 1 -0.3
v -0.4 1.3 -0.3
v -0.4 1.4 -0.3
v -0.3 0 -0.3
v -0.3 1 -0.3
v 0.3 0 -0.3
v 0.3 1 -0.3
v 0.4 0 -0.3
v 0.4 0.9 -0.3
v 0.4 1 -0.3
v 0.4 1.3 -0.3
v 0.4 1.4 -0.3
v 0.5 0.9 -0.3
v 0.5 1.3 -0.3
v 0.5 1.4 -0.3
v 0.5 1.7 -0.3
v 0.6 1.3 -0.3
v 0.6 1.6 -0.3
v 0.7 1.6 -0.3
v 0.7 1.7 -0.3
v 0 0 -0.5
v 0 0.5 -0.5
v 0.1 0 -0.5
v 0.1 0.5 -0.5
v 0 0.5 -0.6
v 0 0.7 -0.6
v 0.1 0.5 -0.6
v 0.1 0.7 -0.6
v 0 0.7 -0.7
v 0 0.8 -0.7
v 0.1 0.7 -0.7
v 0.1 0.8 -0.7
v 0 0.8 -0.8
v 0 0.9 -0.8
v 0.1 0.8 -0.8
v 0.1 0.9 -0.8
v 0 0.9 -1
v 0 1 -1
v 0.1 0.9 -1
v 0.1 1 -1
v -0.2 0 0.3
v -0.1 0 0.3
v 0.1 0 0.3
v 0.2 0 0.3
v -0.2 0 0.2
v -0.1 0 0.2
v 0.1 0 0.2
v 0.2 0 0.2
v -0.1 0 0
v 0 0 0
v -0.1 0 -0.1
v 0 0 -0.1
v -0.4 0 -0.2
v -0.3 0 -0.2
v 0.3 0 -0.2
v 0.4 0 -0.2
v -0.4 0 -0.3
v -0.3 0 -0.3
v 0.3 0 -0.3
v 0.4 0 -0.3
v 0 0 -0.4
v 0.1 0 -0.4
v 0 0 -0.5
v 0.1 0 -0.5
v -0.2 0.5 0.4
v -0.1 0.5 0.4
v -0.2 0.5 0.3
v -0.1 0.5 0.3
v 0 0.5 -0.5
v 0.1 0.5 -0.5
v 0 0.5 -0.6
v 0.1 0.5 -0.6
v -0.3 0.7 0.5
v -0.2 0.7 0.5
v -0.3 0.7 0.4
v -0.2 0.7 0.4
v 0 0.7 -0.6
v 0.1 0.7 -0.6
v 0 0.7 -0.7
v 0.1 0.7 -0.7
v -0.3 0.8 0.6
v -0.2 0.8 0.6
v -0.3 0.8 0.5
v -0.2 0.8 0.5
v 0 0.8 -0.7
v 0.1 0.8 -0.7
v 0 0.8 -0.8
v 0.1 0.8 -0.8
v -0.4 0.9 0.8
v -0.3 0.9 0.8
v -0.4 0.9 0.6
v -0.3 0.9 0.6
v 0.1 0.9 0.4
v 0.2 0.9 0.4
v 0.1 0.9 0.3
v 0.2 0.9 0.3
v -0.5 0.9 -0.2
v -0.4 0.9 -0.2
v 0.4 0.9 -0.2
v 0.5 0.9 -0.2
v -0.5 0.9 -0.3
v -0.4 0.9 -0.3
v 0.4 0.9 -0.3
v 0.5 0.9 -0.3
v 0 0.9 -0.8
v 0.1 0.9 -0.8
v 0 0.9 -1
v 0.1 0.9 -1
v 0.2 1.3 0.4
v 0.3 1.3 0.4
v 0.2 1.3 0.3
v 0.3 1.3 0.3
v -0.6 1.3 -0.2
v -0.5 1.3 -0.2
v 0.5 1.3 -0.2
v 0.6 1.3 -0.2
v -0.6 1.3 -0.3
v -0.5 1.3 -0.3
v 0.5 1.3 -0.3
v 0.6 1.3 -0.3
v 0.2 1.6 0.5
v 0.3 1.6 0.5
v 0.2 1.6 0.4
v 0.3 1.6 0.4
v -0.7 1.6 -0.2
v -0.6 1.6 -0.2
v 0.6 1.6 -0.2
v 0.7 1.6 -0.2
v -0.7 1.6 -0.3
v -0.6 1.6 -0.3
v 0.6 1.6 -0.3
v 0.7 1.6 -0.3
v -0.2 1.9 0.1
v 0.1 1.9 0.1
v -0.1 1.9 0
v 0 1.9 0
v -0.1 1.9 -0.1
v 0 1.9 -0.1
v -0.2 1.9 -0.2
v 0.1 1.9 -0.2
v -0.2 0.6 0.3
v -0.1 0.6 0.3
v -0.2 0.6 0.2
v -0.1 0.6 0.2
v 0 0.6 -0.4
v 0.1 0.6 -0.4
v 0 0.6 -0.5
v 0.1 0.6 -0.5
v -0.2 0.8 0.4
v -0.1 0.8 0.4
v -0.2 0.8 0.3
v -0.1 0.8 0.3
v 0 0.8 -0.5
v 0.1 0.8 -0.5
v 0 0.8 -0.6
v 0.1 0.8 -0.6
v -0.3 0.9 0.5
v -0.2 0.9 0.5
v -0.3 0.9 0.4
v -0.2 0.9 0.4
v 0 0.9 -0.6
v 0.1 0.9 -0.6
v 0 0.9 -0.7
v 0.1 0.9 -0.7
v -0.4 1 0.8
v -0.3 1 0.8
v -0.4 1 0.6
v -0.3 1 0.6
v -0.2 1 0.6
v -0.3 1 0.5
v -0.2 1 0.5
v 0.1 1 0.3
v 0.2 1 0.3
v 0.1 1 0.2
v 0.2 1 0.2
v -0.4 1 -0.2
v -0.3 1 -0.2
v 0.3 1 -0.2
v 0.4 1 -0.2
v -0.4 1 -0.3
v -0.3 1 -0.3
v 0.3 1 -0.3
v 0.4 1 -0.3
v 0 1 -0.7
v 0.1 1 -0.7
v 0 1 -1
v 0.1 1 -1
v 0.1 1.4 0.4
v 0.2 1.4 0.4
v 0.1 1.4 0.3
v 0.2 1.4 0.3
v -0.5 1.4 -0.2
v -0.4 1.4 -0.2
v 0.4 1.4 -0.2
v 0.5 1.4 -0.2
v -0.5 1.4 -0.3
v -0.4 1.4 -0.3
v 0.4 1.4 -0.3
v 0.5 1.4 -0.3
v 0.2 1.7 0.5
v 0.3 1.7 0.5
v 0.2 1.7 0.3
v 0.3 1.7 0.3
v -0.7 1.7 -0.2
v -0.5 1.7 -0.2
v 0.5 1.7 -0.2
v 0.7 1.7 -0.2
v -0.7 1.7 -0.3
v -0.5 1.7 -0.3
v 0.5 1.7 -0.3
v 0.7 1.7 -0.3
v -0.2 2.5 0.1
v 0.1 2.5 0.1
v -0.1 2.5 0
v 0 2.5 0
v -0.1 2.5 -0.1
v 0 2.5 -0.1
v -0.2 2.5 -0.2
v 0.1 2.5 -0.2
v -0.1 2.6 0
v 0 2.6 0
v -0.1 2.6 -0.1
v 0 2.6 -0.1

# faces
f 3/2/1 2/2/1 1/2/1
f 4/2/1 2/2/1 3/2/1
f 7/2/1 6/2/1 5/2/1
f 8/2/1 6/2/1 7/2/1
f 11/3/1 10/3/1 9/3/1
f 12/3/1 10/3/1 11/3/1
f 17/3/1 14/3/1 13/3/1
f 18/3/1 14/3/1 17/3/1
f 19/3/1 16/3/1 15/3/1
f 20/3/1 16/3/1 19/3/1
f 24/3/1 22/3/1 21/3/1
f 25/3/1 24/3/1 23/3/1
f 26/3/1 22/3/1 24/3/1
f 26/3/1 24/3/1 25/3/1
f 27/3/1 22/3/1 26/3/1
f 28/3/1 26/3/1 25/3/1
f 29/3/1 26/3/1 28/3/1
f 33/3/1 31/3/1 30/3/1
f 34/3/1 31/3/1 33/3/1
f 34/3/1 33/3/1 32/3/1
f 35/3/1 31/3/1 34/3/1
f 36/3/1 34/3/1 32/3/1
f 37/3/1 34/3/1 36/3/1
f 38/3/1 34/3/1 37/3/1
f 41/1/1 40/1/1 39/1/1
f 42/1/1 40/1/1 41/1/1
f 45/3/1 44/3/1 43/3/1
f 46/3/1 44/3/1 45/3/1
f 49/1/1 48/1/1 47/1/1
f 50/1/1 48/1/1 49/1/1
f 53/3/1 52/3/1 51/3/1
f 55/3/1 53/3/1 51/3/1
f 55/3/1 54/3/1 53/3/1
f 56/3/1 54/3/1 55/3/1
f 57/3/1 54/3/1 56/3/1
f 59/3/1 57/3/1 56/3/1
f 59/3/1 58/3/1 57/3/1
f 60/3/1 58/3/1 59/3/1
f 61/3/1 58/3/1 60/3/1
f 63/3/1 62/3/1 61/3/1
f 63/3/1 61/3/1 60/3/1
f 64/3/1 62/3/1 63/3/1
f 65/3/1 62/3/1 64/3/1
f 67/3/1 66/3/1 65/3/1
f 67/3/1 65/3/1 64/3/1
f 68/3/1 66/3/1 67/3/1
f 72/3/1 70/3/1 69/3/1
f 73/3/1 70/3/1 72/3/1
f 73/3/1 72/3/1 71/3/1
f 74/3/1 70/3/1 73/3/1
f 75/3/1 73/3/1 71/3/1
f 76/3/1 73/3/1 75/3/1
f 77/2/1 76/2/1 75/2/1
f 78/2/1 76/2/1 77/2/1
f 82/2/1 80/2/1 79/2/1
f 83/2/1 82/2/1 81/2/1
f 84/2/1 80/2/1 82/2/1
f 84/2/1 82/2/1 83/2/1
f 87/3/1 86/3/1 85/3/1
f 88/3/1 86/3/1 87/3/1
f 91/3/1 90/3/1 89/3/1
f 92/3/1 90/3/1 91/3/1
f 93/2/1 92/2/1 91/2/1
f 94/2/1 92/2/1 93/2/1
f 97/2/1 96/2/1 95/2/1
f 98/2/1 96/2/1 97/2/1
f 99/2/2 100/2/2 101/2/2
f 101/2/2 100/2/2 102/2/2
f 103/3/2 104/3/2 105/3/2
f 105/3/2 104/3/2 106/3/2
f 105/2/2 106/2/2 107/2/2
f 107/2/2 106/2/2 108/2/2
f 111/3/2 112/3/2 113/3/2
f 113/3/2 112/3/2 114/3/2
f 109/3/2 110/3/2 115/3/2
f 115/3/2 110/3/2 116/3/2
f 117/3/2 118/3/2 120/3/2
f 120/3/2 118/3/2 121/3/2
f 119/3/2 120/3/2 122/3/2
f 120/3/2 121/3/2 122/3/2
f 122/3/2 121/3/2 123/3/2
f 119/3/2 122/3/2 124/3/2
f 124/3/2 122/3/2 125/3/2
f 126/3/2 127/3/2 129/3/2
f 129/3/2 127/3/2 130/3/2
f 128/3/2 129/3/2 130/3/2
f 130/3/2 127/3/2 131/3/2
f 128/3/2 130/3/2 132/3/2
f 132/3/2 130/3/2 133/3/2
f 134/3/2 135/3/2 136/3/2
f 136/3/2 135/3/2 137/3/2
f 138/1/2 139/1/2 140/1/2
f 140/1/2 139/1/2 141/1/2
f 142/3/2 143/3/2 144/3/2
f 142/3/2 144/3/2 146/3/2
f 144/3/2 145/3/2 146/3/2
f 146/3/2 145/3/2 147/3/2
f 147/3/2 145/3/2 148/3/2
f 147/3/2 148/3/2 150/3/2
f 148/3/2 149/3/2 150/3/2
f 150/3/2 149/3/2 151/3/2
f 151/3/2 149/3/2 152/3/2
f 152/3/2 153/3/2 154/3/2
f 151/3/2 152/3/2 154/3/2
f 154/3/2 153/3/2 155/3/2
f 155/3/2 153/3/2 156/3/2
f 156/3/2 157/3/2 158/3/2
f 155/3/2 156/3/2 158/3/2
f 158/3/2 157/3/2 159/3/2
f 160/1/2 161/1/2 162/1/2
f 162/1/2 161/1/2 163/1/2
f 164/3/2 165/3/2 167/3/2
f 167/3/2 165/3/2 168/3/2
f 166/3/2 167/3/2 168/3/2
f 168/3/2 165/3/2 169/3/2
f 166/3/2 168/3/2 170/3/2
f 170/3/2 168/3/2 171/3/2
f 172/2/2 173/2/2 175/2/2
f 174/2/2 175/2/2 176/2/2
f 175/2/2 173/2/2 177/2/2
f 176/2/2 175/2/2 177/2/2
f 178/3/2 179/3/2 180/3/2
f 180/3/2 179/3/2 181/3/2
f 182/3/2 183/3/2 184/3/2
f 184/3/2 183/3/2 185/3/2
f 186/2/2 187/2/2 188/2/2
f 188/2/2 187/2/2 189/2/2
f 190/2/2 191/2/2 192/2/2
f 192/2/2 191/2/2 193/2/2
f 196/3/3 195/3/3 194/3/3
f 197/3/3 195/3/3 196/3/3
f 201/3/3 199/3/3 198/3/3
f 201/3/3 200/3/3 199/3/3
f 202/3/3 200/3/3 201/3/3
f 205/3/3 204/3/3 203/3/3
f 206/3/3 204/3/3 205/3/3
f 209/2/3 208/2/3 207/2/3
f 210/2/3 208/2/3 209/2/3
f 214/3/3 212/3/3 211/3/3
f 214/3/3 213/3/3 212/3/3
f 215/3/3 213/3/3 214/3/3
f 219/3/3 217/3/3 216/3/3
f 220/2/3 218/2/3 217/2/3
f 220/3/3 217/3/3 219/3/3
f 221/2/3 218/2/3 220/2/3
f 223/2/3 222/2/3 221/2/3
f 223/2/3 221/2/3 220/2/3
f 224/2/3 222/2/3 223/2/3
f 227/3/3 226/3/3 225/3/3
f 228/3/3 226/3/3 227/3/3
f 231/3/3 230/3/3 229/3/3
f 232/3/3 230/3/3 231/3/3
f 235/1/3 234/1/3 233/1/3
f 236/1/3 234/1/3 235/1/3
f 241/3/3 238/3/3 237/3/3
f 242/3/3 238/3/3 241/3/3
f 243/1/3 240/1/3 239/1/3
f 244/1/3 240/1/3 243/1/3
f 248/2/3 246/2/3 245/2/3
f 250/2/3 248/2/3 247/2/3
f 251/2/3 248/2/3 250/2/3
f 252/2/3 246/2/3 248/2/3
f 252/2/3 248/2/3 251/2/3
f 254/3/3 250/3/3 249/3/3
f 255/3/3 250/3/3 254/3/3
f 256/2/3 251/2/3 250/2/3
f 256/3/3 250/3/3 255/3/3
f 257/2/3 251/2/3 256/2/3
f 258/3/3 255/3/3 254/3/3
f 258/3/3 254/3/3 253/3/3
f 259/3/3 255/3/3 258/3/3
f 262/3/3 261/3/3 260/3/3
f 263/3/3 261/3/3 262/3/3
f 264/3/3 261/3/3 263/3/3
f 267/3/3 264/3/3 263/3/3
f 267/3/3 265/3/3 264/3/3
f 268/2/3 266/2/3 265/2/3
f 268/3/3 265/3/3 267/3/3
f 269/2/3 266/2/3 268/2/3
f 271/2/3 269/2/3 268/2/3
f 271/2/3 270/2/3 269/2/3
f 272/2/3 270/2/3 271/2/3
f 273/2/3 270/2/3 272/2/3
f 274/2/3 270/2/3 273/2/3
f 277/3/3 276/3/3 275/3/3
f 278/3/3 276/3/3 277/3/3
f 281/3/3 280/3/3 279/3/3
f 282/3/3 280/3/3 281/3/3
f 285/3/3 284/3/3 283/3/3
f 286/3/3 284/3/3 285/3/3
f 289/3/3 288/3/3 287/3/3
f 290/3/3 288/3/3 289/3/3
f 291/3/4 292/3/4 293/3/4
f 293/3/4 292/3/4 294/3/4
f 295/3/4 296/3/4 297/3/4
f 297/3/4 296/3/4 298/3/4
f 299/3/4 300/3/4 301/3/4
f 301/3/4 300/3/4 302/3/4
f 302/3/4 300/3/4 303/3/4
f 304/3/4 305/3/4 306/3/4
f 306/3/4 305/3/4 307/3/4
f 308/3/4 309/3/4 311/3/4
f 309/2/4 310/2/4 312/2/4
f 311/3/4 309/3/4 312/3/4
f 312/2/4 310/2/4 313/2/4
f 313/2/4 314/2/4 315/2/4
f 312/2/4 313/2/4 315/2/4
f 315/2/4 314/2/4 316/2/4
f 317/3/4 318/3/4 319/3/4
f 319/3/4 318/3/4 320/3/4
f 321/3/4 322/3/4 323/3/4
f 323/3/4 322/3/4 324/3/4
f 325/3/4 326/3/4 329/3/4
f 329/3/4 326/3/4 330/3/4
f 327/1/4 328/1/4 331/1/4
f 331/1/4 328/1/4 332/1/4
f 333/1/4 334/1/4 335/1/4
f 335/1/4 334/1/4 336/1/4
f 337/2/4 338/2/4 340/2/4
f 339/2/4 340/2/4 342/2/4
f 342/2/4 340/2/4 343/2/4
f 340/2/4 338/2/4 344/2/4
f 343/2/4 340/2/4 344/2/4
f 341/3/4 342/3/4 346/3/4
f 346/3/4 342/3/4 347/3/4
f 342/2/4 343/2/4 348/2/4
f 347/3/4 342/3/4 348/3/4
f 348/2/4 343/2/4 349/2/4
f 346/3/4 347/3/4 350/3/4
f 345/3/4 346/3/4 350/3/4
f 350/3/4 347/3/4 351/3/4
f 352/3/4 353/3/4 354/3/4
f 354/3/4 353/3/4 355/3/4
f 355/3/4 353/3/4 356/3/4
f 355/3/4 356/3/4 359/3/4
f 356/3/4 357/3/4 359/3/4
f 357/2/4 358/2/4 360/2/4
f 359/3/4 357/3/4 360/3/4
f 360/2/4 358/2/4 361/2/4
f 360/2/4 361/2/4 363/2/4
f 361/2/4 362/2/4 363/2/4
f 363/2/4 362/2/4 364/2/4
f 364/2/4 362/2/4 365/2/4
f 365/2/4 362/2/4 366/2/4
f 367/3/4 368/3/4 369/3/4
f 369/3/4 368/3/4 370/3/4
f 371/3/4 372/3/4 373/3/4
f 373/3/4 372/3/4 374/3/4
f 375/3/4 376/3/4 377/3/4
f 377/3/4 376/3/4 378/3/4
f 379/3/4 380/3/4 381/3/4
f 381/3/4 380/3/4 382/3/4
f 383/3/4 384/3/4 385/3/4
f 385/3/4 384/3/4 386/3/4
f 391/3/5 388/3/5 387/3/5
f 392/3/5 388/3/5 391/3/5
f 393/3/5 390/3/5 389/3/5
f 394/3/5 390/3/5 393/3/5
f 397/3/5 396/3/5 395/3/5
f 398/3/5 396/3/5 397/3/5
f 403/3/5 400/3/5 399/3/5
f 404/3/5 400/3/5 403/3/5
f 405/3/5 402/3/5 401/3/5
f 406/3/5 402/3/5 405/3/5
f 409/3/5 408/3/5 407/3/5
f 410/3/5 408/3/5 409/3/5
f 413/3/5 412/3/5 411/3/5
f 414/3/5 412/3/5 413/3/5
f 417/3/5 416/3/5 415/3/5
f 418/3/5 416/3/5 417/3/5
f 421/3/5 420/3/5 419/3/5
f 422/3/5 420/3/5 421/3/5
f 425/3/5 424/3/5 423/3/5
f 426/3/5 424/3/5 425/3/5
f 429/3/5 428/3/5 427/3/5
f 430/3/5 428/3/5 429/3/5
f 433/3/5 432/3/5 431/3/5
f 434/3/5 432/3/5 433/3/5
f 437/3/5 436/3/5 435/3/5
f 438/3/5 436/3/5 437/3/5
f 441/3/5 440/3/5 439/3/5
f 442/3/5 440/3/5 441/3/5
f 447/3/5 444/3/5 443/3/5
f 448/3/5 444/3/5 447/3/5
f 449/3/5 446/3/5 445/3/5
f 450/3/5 446/3/5 449/3/5
f 453/3/5 452/3/5 451/3/5
f 454/3/5 452/3/5 453/3/5
f 457/2/5 456/2/5 455/2/5
f 458/2/5 456/2/5 457/2/5
f 463/2/5 460/2/5 459/2/5
f 464/2/5 460/2/5 463/2/5
f 465/2/5 462/2/5 461/2/5
f 466/2/5 462/2/5 465/2/5
f 469/2/5 468/2/5 467/2/5
f 470/2/5 468/2/5 469/2/5
f 475/2/5 472/2/5 471/2/5
f 476/2/5 472/2/5 475/2/5
f 477/2/5 474/2/5 473/2/5
f 478/2/5 474/2/5 477/2/5
f 481/1/5 480/1/5 479/1/5
f 482/1/5 480/1/5 481/1/5
f 483/1/5 481/1/5 479/1/5
f 484/1/5 480/1/5 482/1/5
f 485/1/5 483/1/5 479/1/5
f 485/1/5 484/1/5 483/1/5
f 486/1/5 480/1/5 484/1/5
f 486/1/5 484/1/5 485/1/5
f 487/3/6 488/3/6 489/3/6
f 489/3/6 488/3/6 490/3/6
f 491/3/6 492/3/6 493/3/6
f 493/3/6 492/3/6 494/3/6
f 495/3/6 496/3/6 497/3/6
f 497/3/6 496/3/6 498/3/6
f 499/3/6 500/3/6 501/3/6
f 501/3/6 500/3/6 502/3/6
f 503/3/6 504/3/6 505/3/6
f 505/3/6 504/3/6 506/3/6
f 507/3/6 508/3/6 509/3/6
f 509/3/6 508/3/6 510/3/6
f 511/3/6 512/3/6 513/3/6
f 513/3/6 512/3/6 514/3/6
f 514/3/6 515/3/6 516/3/6
f 516/3/6 515/3/6 517/3/6
f 518/3/6 519/3/6 520/3/6
f 520/3/6 519/3/6 521/3/6
f 522/3/6 523/3/6 526/3/6
f 526/3/6 523/3/6 527/3/6
f 524/3/6 525/3/6 528/3/6
f 528/3/6 525/3/6 529/3/6
f 530/3/6 531/3/6 532/3/6
f 532/3/6 531/3/6 533/3/6
f 534/2/6 535/2/6 536/2/6
f 536/2/6 535/2/6 537/2/6
f 538/2/6 539/2/6 542/2/6
f 542/2/6 539/2/6 543/2/6
f 540/2/6 541/2/6 544/2/6
f 544/2/6 541/2/6 545/2/6
f 546/2/6 547/2/6 548/2/6
f 548/2/6 547/2/6 549/2/6
f 550/2/6 551/2/6 554/2/6
f 554/2/6 551/2/6 555/2/6
f 552/2/6 553/2/6 556/2/6
f 556/2/6 553/2/6 557/2/6
f 558/1/6 559/1/6 560/1/6
f 560/1/6 559/1/6 561/1/6
f 558/1/6 560/1/6 562/1/6
f 561/1/6 559/1/6 563/1/6
f 558/1/6 562/1/6 564/1/6
f 562/1/6 563/1/6 564/1/6
f 563/1/6 559/1/6 565/1/6
f 564/1/6 563/1/6 565/1/6
f 566/1/6 567/1/6 568/1/6
f 568/1/6 567/1/6 569/1/6
