# MagicaVoxel @ Ephtracy

# group
o 

# material
mtllib gras_high.mtl
usemtl palette

# normals
vn -1 0 0
vn 1 0 0
vn 0 0 1
vn 0 0 -1
vn 0 -1 0
vn 0 1 0

# texcoords
vt 0.607422 0.5
vt 0.630859 0.5
vt 0.744141 0.5
vt 0.896484 0.5
vt 0.900391 0.5

# verts
v -0.6 0.7 -0.4
v -0.6 0.7 -0.5
v -0.6 0.9 -0.4
v -0.6 0.9 -0.5
v -0.5 0.4 -0.4
v -0.5 0.4 -0.5
v -0.5 0.7 -0.4
v -0.5 0.7 -0.5
v -0.4 0 0.1
v -0.4 0 -5.96046e-08
v -0.4 0 -0.4
v -0.4 0 -0.5
v -0.4 0.2 0.2
v -0.4 0.2 0.1
v -0.4 0.2 -5.96046e-08
v -0.4 0.4 -0.4
v -0.4 0.4 -0.5
v -0.4 0.5 0.3
v -0.4 0.5 0.2
v -0.4 0.5 0.1
v -0.4 0.7 0.3
v -0.4 0.7 0.2
v -0.2 0 0.7
v -0.2 0 0.6
v -0.2 0.2 0.4
v -0.2 0.2 0.3
v -0.2 0.3 0.8
v -0.2 0.3 0.7
v -0.2 0.3 0.6
v -0.2 0.4 0.4
v -0.2 0.4 0.3
v -0.2 0.4 0.2
v -0.2 0.6 0.8
v -0.2 0.6 0.7
v -0.2 0.6 0.3
v -0.2 0.6 0.2
v -0.0999999 0 0.4
v -0.0999999 0 0.3
v -0.0999999 0 -0.1
v -0.0999999 0 -0.2
v -0.0999999 0.2 0.4
v -0.0999999 0.2 0.3
v -0.0999999 0.5 -0.1
v -0.0999999 0.5 -0.2
v 5.96046e-08 0 -0.7
v 5.96046e-08 0 -0.8
v 5.96046e-08 0.3 -0.6
v 5.96046e-08 0.3 -0.7
v 5.96046e-08 0.3 -0.8
v 5.96046e-08 0.5 -5.96046e-08
v 5.96046e-08 0.5 -0.1
v 5.96046e-08 0.6 -0.6
v 5.96046e-08 0.6 -0.7
v 5.96046e-08 0.7 -5.96046e-08
v 5.96046e-08 0.7 -0.1
v 0.2 0 0.6
v 0.2 0 0.5
v 0.2 0 0.1
v 0.2 0 -5.96046e-08
v 0.2 0.2 0.2
v 0.2 0.2 0.1
v 0.2 0.2 -5.96046e-08
v 0.2 0.5 0.6
v 0.2 0.5 0.5
v 0.2 0.5 0.2
v 0.2 0.5 0.1
v 0.3 0.5 0.6
v 0.3 0.5 0.5
v 0.3 0.8 0.6
v 0.3 0.8 0.5
v 0.4 0 -0.3
v 0.4 0 -0.4
v 0.4 0.3 -0.3
v 0.4 0.3 -0.4
v 0.4 0.8 0.6
v 0.4 0.8 0.5
v 0.4 1 0.6
v 0.4 1 0.5
v 0.5 0 0.1
v 0.5 0 -5.96046e-08
v 0.5 0 -0.7
v 0.5 0 -0.8
v 0.5 0.3 0.1
v 0.5 0.3 -5.96046e-08
v 0.5 0.3 -0.3
v 0.5 0.3 -0.4
v 0.5 0.4 -0.7
v 0.5 0.4 -0.8
v 0.5 0.4 -0.9
v 0.5 0.5 -0.3
v 0.5 0.5 -0.4
v 0.5 0.5 -0.5
v 0.5 0.6 -0.4
v 0.5 0.6 -0.5
v 0.5 0.7 -0.8
v 0.5 0.7 -0.9
v 0.6 0.3 0.1
v 0.6 0.3 -5.96046e-08
v 0.6 0.5 0.1
v 0.6 0.5 -5.96046e-08
v -0.5 0.7 -0.4
v -0.5 0.7 -0.5
v -0.5 0.9 -0.4
v -0.5 0.9 -0.5
v -0.4 0.4 -0.4
v -0.4 0.4 -0.5
v -0.4 0.7 -0.4
v -0.4 0.7 -0.5
v -0.3 0 0.1
v -0.3 0 -5.96046e-08
v -0.3 0 -0.4
v -0.3 0 -0.5
v -0.3 0.2 0.2
v -0.3 0.2 0.1
v -0.3 0.2 -5.96046e-08
v -0.3 0.4 -0.4
v -0.3 0.4 -0.5
v -0.3 0.5 0.3
v -0.3 0.5 0.2
v -0.3 0.5 0.1
v -0.3 0.7 0.3
v -0.3 0.7 0.2
v -0.0999999 0 0.7
v -0.0999999 0 0.6
v -0.0999999 0.2 0.4
v -0.0999999 0.2 0.3
v -0.0999999 0.3 0.8
v -0.0999999 0.3 0.7
v -0.0999999 0.3 0.6
v -0.0999999 0.4 0.4
v -0.0999999 0.4 0.3
v -0.0999999 0.4 0.2
v -0.0999999 0.6 0.8
v -0.0999999 0.6 0.7
v -0.0999999 0.6 0.3
v -0.0999999 0.6 0.2
v 5.96046e-08 0 0.4
v 5.96046e-08 0 0.3
v 5.96046e-08 0 -0.1
v 5.96046e-08 0 -0.2
v 5.96046e-08 0.2 0.4
v 5.96046e-08 0.2 0.3
v 5.96046e-08 0.5 -0.1
v 5.96046e-08 0.5 -0.2
v 0.1 0 -0.7
v 0.1 0 -0.8
v 0.1 0.3 -0.6
v 0.1 0.3 -0.7
v 0.1 0.3 -0.8
v 0.1 0.5 -5.96046e-08
v 0.1 0.5 -0.1
v 0.1 0.6 -0.6
v 0.1 0.6 -0.7
v 0.1 0.7 -5.96046e-08
v 0.1 0.7 -0.1
v 0.3 0 0.6
v 0.3 0 0.5
v 0.3 0 0.1
v 0.3 0 -5.96046e-08
v 0.3 0.2 0.2
v 0.3 0.2 0.1
v 0.3 0.2 -5.96046e-08
v 0.3 0.5 0.6
v 0.3 0.5 0.5
v 0.3 0.5 0.2
v 0.3 0.5 0.1
v 0.4 0.5 0.6
v 0.4 0.5 0.5
v 0.4 0.8 0.6
v 0.4 0.8 0.5
v 0.5 0 -0.3
v 0.5 0 -0.4
v 0.5 0.3 -0.3
v 0.5 0.3 -0.4
v 0.5 0.8 0.6
v 0.5 0.8 0.5
v 0.5 1 0.6
v 0.5 1 0.5
v 0.6 0 0.1
v 0.6 0 -5.96046e-08
v 0.6 0 -0.7
v 0.6 0 -0.8
v 0.6 0.3 0.1
v 0.6 0.3 -5.96046e-08
v 0.6 0.3 -0.3
v 0.6 0.3 -0.4
v 0.6 0.4 -0.7
v 0.6 0.4 -0.8
v 0.6 0.4 -0.9
v 0.6 0.5 -0.3
v 0.6 0.5 -0.4
v 0.6 0.5 -0.5
v 0.6 0.6 -0.4
v 0.6 0.6 -0.5
v 0.6 0.7 -0.8
v 0.6 0.7 -0.9
v 0.7 0.3 0.1
v 0.7 0.3 -5.96046e-08
v 0.7 0.5 0.1
v 0.7 0.5 -5.96046e-08
v -0.2 0.3 0.8
v -0.2 0.6 0.8
v -0.0999999 0.3 0.8
v -0.0999999 0.6 0.8
v -0.2 0 0.7
v -0.2 0.3 0.7
v -0.0999999 0 0.7
v -0.0999999 0.3 0.7
v 0.2 0 0.6
v 0.2 0.5 0.6
v 0.3 0 0.6
v 0.3 0.5 0.6
v 0.3 0.8 0.6
v 0.4 0.5 0.6
v 0.4 0.8 0.6
v 0.4 1 0.6
v 0.5 0.8 0.6
v 0.5 1 0.6
v -0.2 0.2 0.4
v -0.2 0.4 0.4
v -0.0999999 0 0.4
v -0.0999999 0.2 0.4
v -0.0999999 0.4 0.4
v 5.96046e-08 0 0.4
v 5.96046e-08 0.2 0.4
v -0.4 0.5 0.3
v -0.4 0.7 0.3
v -0.3 0.5 0.3
v -0.3 0.7 0.3
v -0.2 0.4 0.3
v -0.2 0.6 0.3
v -0.0999999 0.4 0.3
v -0.0999999 0.6 0.3
v -0.4 0.2 0.2
v -0.4 0.5 0.2
v -0.3 0.2 0.2
v -0.3 0.5 0.2
v 0.2 0.2 0.2
v 0.2 0.5 0.2
v 0.3 0.2 0.2
v 0.3 0.5 0.2
v -0.4 0 0.1
v -0.4 0.2 0.1
v -0.3 0 0.1
v -0.3 0.2 0.1
v 0.2 0 0.1
v 0.2 0.2 0.1
v 0.3 0 0.1
v 0.3 0.2 0.1
v 0.5 0 0.1
v 0.5 0.3 0.1
v 0.6 0 0.1
v 0.6 0.3 0.1
v 0.6 0.5 0.1
v 0.7 0.3 0.1
v 0.7 0.5 0.1
v 5.96046e-08 0.5 -5.96046e-08
v 5.96046e-08 0.7 -5.96046e-08
v 0.1 0.5 -5.96046e-08
v 0.1 0.7 -5.96046e-08
v -0.0999999 0 -0.1
v -0.0999999 0.5 -0.1
v 5.96046e-08 0 -0.1
v 5.96046e-08 0.5 -0.1
v 0.4 0 -0.3
v 0.4 0.3 -0.3
v 0.5 0 -0.3
v 0.5 0.3 -0.3
v 0.5 0.5 -0.3
v 0.6 0.3 -0.3
v 0.6 0.5 -0.3
v -0.6 0.7 -0.4
v -0.6 0.9 -0.4
v -0.5 0.4 -0.4
v -0.5 0.7 -0.4
v -0.5 0.9 -0.4
v -0.4 0 -0.4
v -0.4 0.4 -0.4
v -0.4 0.7 -0.4
v -0.3 0 -0.4
v -0.3 0.4 -0.4
v 0.5 0.5 -0.4
v 0.5 0.6 -0.4
v 0.6 0.5 -0.4
v 0.6 0.6 -0.4
v 5.96046e-08 0.3 -0.6
v 5.96046e-08 0.6 -0.6
v 0.1 0.3 -0.6
v 0.1 0.6 -0.6
v 5.96046e-08 0 -0.7
v 5.96046e-08 0.3 -0.7
v 0.1 0 -0.7
v 0.1 0.3 -0.7
v 0.5 0 -0.7
v 0.5 0.4 -0.7
v 0.6 0 -0.7
v 0.6 0.4 -0.7
v 0.5 0.4 -0.8
v 0.5 0.7 -0.8
v 0.6 0.4 -0.8
v 0.6 0.7 -0.8
v -0.2 0.3 0.7
v -0.2 0.6 0.7
v -0.0999999 0.3 0.7
v -0.0999999 0.6 0.7
v -0.2 0 0.6
v -0.2 0.3 0.6
v -0.0999999 0 0.6
v -0.0999999 0.3 0.6
v 0.2 0 0.5
v 0.2 0.5 0.5
v 0.3 0 0.5
v 0.3 0.5 0.5
v 0.3 0.8 0.5
v 0.4 0.5 0.5
v 0.4 0.8 0.5
v 0.4 1 0.5
v 0.5 0.8 0.5
v 0.5 1 0.5
v -0.2 0.2 0.3
v -0.2 0.4 0.3
v -0.0999999 0 0.3
v -0.0999999 0.2 0.3
v -0.0999999 0.4 0.3
v 5.96046e-08 0 0.3
v 5.96046e-08 0.2 0.3
v -0.4 0.5 0.2
v -0.4 0.7 0.2
v -0.3 0.5 0.2
v -0.3 0.7 0.2
v -0.2 0.4 0.2
v -0.2 0.6 0.2
v -0.0999999 0.4 0.2
v -0.0999999 0.6 0.2
v -0.4 0.2 0.1
v -0.4 0.5 0.1
v -0.3 0.2 0.1
v -0.3 0.5 0.1
v 0.2 0.2 0.1
v 0.2 0.5 0.1
v 0.3 0.2 0.1
v 0.3 0.5 0.1
v -0.4 0 -5.96046e-08
v -0.4 0.2 -5.96046e-08
v -0.3 0 -5.96046e-08
v -0.3 0.2 -5.96046e-08
v 0.2 0 -5.96046e-08
v 0.2 0.2 -5.96046e-08
v 0.3 0 -5.96046e-08
v 0.3 0.2 -5.96046e-08
v 0.5 0 -5.96046e-08
v 0.5 0.3 -5.96046e-08
v 0.6 0 -5.96046e-08
v 0.6 0.3 -5.96046e-08
v 0.6 0.5 -5.96046e-08
v 0.7 0.3 -5.96046e-08
v 0.7 0.5 -5.96046e-08
v 5.96046e-08 0.5 -0.1
v 5.96046e-08 0.7 -0.1
v 0.1 0.5 -0.1
v 0.1 0.7 -0.1
v -0.0999999 0 -0.2
v -0.0999999 0.5 -0.2
v 5.96046e-08 0 -0.2
v 5.96046e-08 0.5 -0.2
v 0.4 0 -0.4
v 0.4 0.3 -0.4
v 0.5 0 -0.4
v 0.5 0.3 -0.4
v 0.5 0.5 -0.4
v 0.6 0.3 -0.4
v 0.6 0.5 -0.4
v -0.6 0.7 -0.5
v -0.6 0.9 -0.5
v -0.5 0.4 -0.5
v -0.5 0.7 -0.5
v -0.5 0.9 -0.5
v -0.4 0 -0.5
v -0.4 0.4 -0.5
v -0.4 0.7 -0.5
v -0.3 0 -0.5
v -0.3 0.4 -0.5
v 0.5 0.5 -0.5
v 0.5 0.6 -0.5
v 0.6 0.5 -0.5
v 0.6 0.6 -0.5
v 5.96046e-08 0.3 -0.7
v 5.96046e-08 0.6 -0.7
v 0.1 0.3 -0.7
v 0.1 0.6 -0.7
v 5.96046e-08 0 -0.8
v 5.96046e-08 0.3 -0.8
v 0.1 0 -0.8
v 0.1 0.3 -0.8
v 0.5 0 -0.8
v 0.5 0.4 -0.8
v 0.6 0 -0.8
v 0.6 0.4 -0.8
v 0.5 0.4 -0.9
v 0.5 0.7 -0.9
v 0.6 0.4 -0.9
v 0.6 0.7 -0.9
v -0.2 0 0.7
v -0.0999999 0 0.7
v -0.2 0 0.6
v -0.0999999 0 0.6
v 0.2 0 0.6
v 0.3 0 0.6
v 0.2 0 0.5
v 0.3 0 0.5
v -0.0999999 0 0.4
v 5.96046e-08 0 0.4
v -0.0999999 0 0.3
v 5.96046e-08 0 0.3
v -0.4 0 0.1
v -0.3 0 0.1
v 0.2 0 0.1
v 0.3 0 0.1
v 0.5 0 0.1
v 0.6 0 0.1
v -0.4 0 -5.96046e-08
v -0.3 0 -5.96046e-08
v 0.2 0 -5.96046e-08
v 0.3 0 -5.96046e-08
v 0.5 0 -5.96046e-08
v 0.6 0 -5.96046e-08
v -0.0999999 0 -0.1
v 5.96046e-08 0 -0.1
v -0.0999999 0 -0.2
v 5.96046e-08 0 -0.2
v 0.4 0 -0.3
v 0.5 0 -0.3
v -0.4 0 -0.4
v -0.3 0 -0.4
v 0.4 0 -0.4
v 0.5 0 -0.4
v -0.4 0 -0.5
v -0.3 0 -0.5
v 5.96046e-08 0 -0.7
v 0.1 0 -0.7
v 0.5 0 -0.7
v 0.6 0 -0.7
v 5.96046e-08 0 -0.8
v 0.1 0 -0.8
v 0.5 0 -0.8
v 0.6 0 -0.8
v -0.2 0.2 0.4
v -0.0999999 0.2 0.4
v -0.2 0.2 0.3
v -0.0999999 0.2 0.3
v -0.4 0.2 0.2
v -0.3 0.2 0.2
v 0.2 0.2 0.2
v 0.3 0.2 0.2
v -0.4 0.2 0.1
v -0.3 0.2 0.1
v 0.2 0.2 0.1
v 0.3 0.2 0.1
v -0.2 0.3 0.8
v -0.0999999 0.3 0.8
v -0.2 0.3 0.7
v -0.0999999 0.3 0.7
v 0.6 0.3 0.1
v 0.7 0.3 0.1
v 0.6 0.3 -5.96046e-08
v 0.7 0.3 -5.96046e-08
v 0.5 0.3 -0.3
v 0.6 0.3 -0.3
v 0.5 0.3 -0.4
v 0.6 0.3 -0.4
v 5.96046e-08 0.3 -0.6
v 0.1 0.3 -0.6
v 5.96046e-08 0.3 -0.7
v 0.1 0.3 -0.7
v -0.2 0.4 0.3
v -0.0999999 0.4 0.3
v -0.2 0.4 0.2
v -0.0999999 0.4 0.2
v -0.5 0.4 -0.4
v -0.4 0.4 -0.4
v -0.5 0.4 -0.5
v -0.4 0.4 -0.5
v 0.5 0.4 -0.8
v 0.6 0.4 -0.8
v 0.5 0.4 -0.9
v 0.6 0.4 -0.9
v 0.3 0.5 0.6
v 0.4 0.5 0.6
v 0.3 0.5 0.5
v 0.4 0.5 0.5
v -0.4 0.5 0.3
v -0.3 0.5 0.3
v -0.4 0.5 0.2
v -0.3 0.5 0.2
v 5.96046e-08 0.5 -5.96046e-08
v 0.1 0.5 -5.96046e-08
v 5.96046e-08 0.5 -0.1
v 0.1 0.5 -0.1
v 0.5 0.5 -0.4
v 0.6 0.5 -0.4
v 0.5 0.5 -0.5
v 0.6 0.5 -0.5
v -0.6 0.7 -0.4
v -0.5 0.7 -0.4
v -0.6 0.7 -0.5
v -0.5 0.7 -0.5
v 0.4 0.8 0.6
v 0.5 0.8 0.6
v 0.4 0.8 0.5
v 0.5 0.8 0.5
v -0.0999999 0.2 0.4
v 5.96046e-08 0.2 0.4
v -0.0999999 0.2 0.3
v 5.96046e-08 0.2 0.3
v -0.4 0.2 0.1
v -0.3 0.2 0.1
v 0.2 0.2 0.1
v 0.3 0.2 0.1
v -0.4 0.2 -5.96046e-08
v -0.3 0.2 -5.96046e-08
v 0.2 0.2 -5.96046e-08
v 0.3 0.2 -5.96046e-08
v -0.2 0.3 0.7
v -0.0999999 0.3 0.7
v -0.2 0.3 0.6
v -0.0999999 0.3 0.6
v 0.5 0.3 0.1
v 0.6 0.3 0.1
v 0.5 0.3 -5.96046e-08
v 0.6 0.3 -5.96046e-08
v 0.4 0.3 -0.3
v 0.5 0.3 -0.3
v 0.4 0.3 -0.4
v 0.5 0.3 -0.4
v 5.96046e-08 0.3 -0.7
v 0.1 0.3 -0.7
v 5.96046e-08 0.3 -0.8
v 0.1 0.3 -0.8
v -0.2 0.4 0.4
v -0.0999999 0.4 0.4
v -0.2 0.4 0.3
v -0.0999999 0.4 0.3
v -0.4 0.4 -0.4
v -0.3 0.4 -0.4
v -0.4 0.4 -0.5
v -0.3 0.4 -0.5
v 0.5 0.4 -0.7
v 0.6 0.4 -0.7
v 0.5 0.4 -0.8
v 0.6 0.4 -0.8
v 0.2 0.5 0.6
v 0.3 0.5 0.6
v 0.2 0.5 0.5
v 0.3 0.5 0.5
v -0.4 0.5 0.2
v -0.3 0.5 0.2
v 0.2 0.5 0.2
v 0.3 0.5 0.2
v -0.4 0.5 0.1
v -0.3 0.5 0.1
v 0.2 0.5 0.1
v 0.3 0.5 0.1
v 0.6 0.5 0.1
v 0.7 0.5 0.1
v 0.6 0.5 -5.96046e-08
v 0.7 0.5 -5.96046e-08
v -0.0999999 0.5 -0.1
v 5.96046e-08 0.5 -0.1
v -0.0999999 0.5 -0.2
v 5.96046e-08 0.5 -0.2
v 0.5 0.5 -0.3
v 0.6 0.5 -0.3
v 0.5 0.5 -0.4
v 0.6 0.5 -0.4
v -0.2 0.6 0.8
v -0.0999999 0.6 0.8
v -0.2 0.6 0.7
v -0.0999999 0.6 0.7
v -0.2 0.6 0.3
v -0.0999999 0.6 0.3
v -0.2 0.6 0.2
v -0.0999999 0.6 0.2
v 0.5 0.6 -0.4
v 0.6 0.6 -0.4
v 0.5 0.6 -0.5
v 0.6 0.6 -0.5
v 5.96046e-08 0.6 -0.6
v 0.1 0.6 -0.6
v 5.96046e-08 0.6 -0.7
v 0.1 0.6 -0.7
v -0.4 0.7 0.3
v -0.3 0.7 0.3
v -0.4 0.7 0.2
v -0.3 0.7 0.2
v 5.96046e-08 0.7 -5.96046e-08
v 0.1 0.7 -5.96046e-08
v 5.96046e-08 0.7 -0.1
v 0.1 0.7 -0.1
v -0.5 0.7 -0.4
v -0.4 0.7 -0.4
v -0.5 0.7 -0.5
v -0.4 0.7 -0.5
v 0.5 0.7 -0.8
v 0.6 0.7 -0.8
v 0.5 0.7 -0.9
v 0.6 0.7 -0.9
v 0.3 0.8 0.6
v 0.4 0.8 0.6
v 0.3 0.8 0.5
v 0.4 0.8 0.5
v -0.6 0.9 -0.4
v -0.5 0.9 -0.4
v -0.6 0.9 -0.5
v -0.5 0.9 -0.5
v 0.4 1 0.6
v 0.5 1 0.6
v 0.4 1 0.5
v 0.5 1 0.5

# faces
f 3/4/1 2/4/1 1/4/1
f 4/4/1 2/4/1 3/4/1
f 7/4/1 6/4/1 5/4/1
f 8/4/1 6/4/1 7/4/1
f 14/2/1 10/2/1 9/2/1
f 15/2/1 10/2/1 14/2/1
f 16/4/1 12/4/1 11/4/1
f 17/4/1 12/4/1 16/4/1
f 19/2/1 14/2/1 13/2/1
f 20/2/1 14/2/1 19/2/1
f 21/2/1 19/2/1 18/2/1
f 22/2/1 19/2/1 21/2/1
f 28/5/1 24/5/1 23/5/1
f 29/5/1 24/5/1 28/5/1
f 30/1/1 26/1/1 25/1/1
f 31/1/1 26/1/1 30/1/1
f 33/5/1 28/5/1 27/5/1
f 34/5/1 28/5/1 33/5/1
f 35/1/1 32/1/1 31/1/1
f 36/1/1 32/1/1 35/1/1
f 41/1/1 38/1/1 37/1/1
f 42/1/1 38/1/1 41/1/1
f 43/2/1 40/2/1 39/2/1
f 44/2/1 40/2/1 43/2/1
f 48/2/1 46/2/1 45/2/1
f 49/2/1 46/2/1 48/2/1
f 52/2/1 48/2/1 47/2/1
f 53/2/1 48/2/1 52/2/1
f 54/2/1 51/2/1 50/2/1
f 55/2/1 51/2/1 54/2/1
f 61/2/1 59/2/1 58/2/1
f 62/2/1 59/2/1 61/2/1
f 63/2/1 57/2/1 56/2/1
f 64/2/1 57/2/1 63/2/1
f 65/2/1 61/2/1 60/2/1
f 66/2/1 61/2/1 65/2/1
f 69/2/1 68/2/1 67/2/1
f 70/2/1 68/2/1 69/2/1
f 73/2/1 72/2/1 71/2/1
f 74/2/1 72/2/1 73/2/1
f 77/2/1 76/2/1 75/2/1
f 78/2/1 76/2/1 77/2/1
f 83/1/1 80/1/1 79/1/1
f 84/1/1 80/1/1 83/1/1
f 87/3/1 82/3/1 81/3/1
f 88/3/1 82/3/1 87/3/1
f 90/2/1 86/2/1 85/2/1
f 91/2/1 86/2/1 90/2/1
f 93/2/1 92/2/1 91/2/1
f 94/2/1 92/2/1 93/2/1
f 95/3/1 89/3/1 88/3/1
f 96/3/1 89/3/1 95/3/1
f 99/1/1 98/1/1 97/1/1
f 100/1/1 98/1/1 99/1/1
f 101/4/2 102/4/2 103/4/2
f 103/4/2 102/4/2 104/4/2
f 105/4/2 106/4/2 107/4/2
f 107/4/2 106/4/2 108/4/2
f 109/2/2 110/2/2 114/2/2
f 114/2/2 110/2/2 115/2/2
f 111/4/2 112/4/2 116/4/2
f 116/4/2 112/4/2 117/4/2
f 113/2/2 114/2/2 119/2/2
f 119/2/2 114/2/2 120/2/2
f 118/2/2 119/2/2 121/2/2
f 121/2/2 119/2/2 122/2/2
f 123/5/2 124/5/2 128/5/2
f 128/5/2 124/5/2 129/5/2
f 125/1/2 126/1/2 130/1/2
f 130/1/2 126/1/2 131/1/2
f 127/5/2 128/5/2 133/5/2
f 133/5/2 128/5/2 134/5/2
f 131/1/2 132/1/2 135/1/2
f 135/1/2 132/1/2 136/1/2
f 137/1/2 138/1/2 141/1/2
f 141/1/2 138/1/2 142/1/2
f 139/2/2 140/2/2 143/2/2
f 143/2/2 140/2/2 144/2/2
f 145/2/2 146/2/2 148/2/2
f 148/2/2 146/2/2 149/2/2
f 147/2/2 148/2/2 152/2/2
f 152/2/2 148/2/2 153/2/2
f 150/2/2 151/2/2 154/2/2
f 154/2/2 151/2/2 155/2/2
f 158/2/2 159/2/2 161/2/2
f 161/2/2 159/2/2 162/2/2
f 156/2/2 157/2/2 163/2/2
f 163/2/2 157/2/2 164/2/2
f 160/2/2 161/2/2 165/2/2
f 165/2/2 161/2/2 166/2/2
f 167/2/2 168/2/2 169/2/2
f 169/2/2 168/2/2 170/2/2
f 171/2/2 172/2/2 173/2/2
f 173/2/2 172/2/2 174/2/2
f 175/2/2 176/2/2 177/2/2
f 177/2/2 176/2/2 178/2/2
f 179/1/2 180/1/2 183/1/2
f 183/1/2 180/1/2 184/1/2
f 181/3/2 182/3/2 187/3/2
f 187/3/2 182/3/2 188/3/2
f 185/2/2 186/2/2 190/2/2
f 190/2/2 186/2/2 191/2/2
f 191/2/2 192/2/2 193/2/2
f 193/2/2 192/2/2 194/2/2
f 188/3/2 189/3/2 195/3/2
f 195/3/2 189/3/2 196/3/2
f 197/1/2 198/1/2 199/1/2
f 199/1/2 198/1/2 200/1/2
f 203/5/3 202/5/3 201/5/3
f 204/5/3 202/5/3 203/5/3
f 207/5/3 206/5/3 205/5/3
f 208/5/3 206/5/3 207/5/3
f 211/2/3 210/2/3 209/2/3
f 212/2/3 210/2/3 211/2/3
f 214/2/3 213/2/3 212/2/3
f 215/2/3 213/2/3 214/2/3
f 217/2/3 216/2/3 215/2/3
f 218/2/3 216/2/3 217/2/3
f 222/1/3 220/1/3 219/1/3
f 223/1/3 220/1/3 222/1/3
f 224/1/3 222/1/3 221/1/3
f 225/1/3 222/1/3 224/1/3
f 228/2/3 227/2/3 226/2/3
f 229/2/3 227/2/3 228/2/3
f 232/1/3 231/1/3 230/1/3
f 233/1/3 231/1/3 232/1/3
f 236/2/3 235/2/3 234/2/3
f 237/2/3 235/2/3 236/2/3
f 240/2/3 239/2/3 238/2/3
f 241/2/3 239/2/3 240/2/3
f 244/2/3 243/2/3 242/2/3
f 245/2/3 243/2/3 244/2/3
f 248/2/3 247/2/3 246/2/3
f 249/2/3 247/2/3 248/2/3
f 252/1/3 251/1/3 250/1/3
f 253/1/3 251/1/3 252/1/3
f 255/1/3 254/1/3 253/1/3
f 256/1/3 254/1/3 255/1/3
f 259/2/3 258/2/3 257/2/3
f 260/2/3 258/2/3 259/2/3
f 263/2/3 262/2/3 261/2/3
f 264/2/3 262/2/3 263/2/3
f 267/2/3 266/2/3 265/2/3
f 268/2/3 266/2/3 267/2/3
f 270/2/3 269/2/3 268/2/3
f 271/2/3 269/2/3 270/2/3
f 275/4/3 273/4/3 272/4/3
f 276/4/3 273/4/3 275/4/3
f 278/4/3 275/4/3 274/4/3
f 279/4/3 275/4/3 278/4/3
f 280/4/3 278/4/3 277/4/3
f 281/4/3 278/4/3 280/4/3
f 284/2/3 283/2/3 282/2/3
f 285/2/3 283/2/3 284/2/3
f 288/2/3 287/2/3 286/2/3
f 289/2/3 287/2/3 288/2/3
f 292/2/3 291/2/3 290/2/3
f 293/2/3 291/2/3 292/2/3
f 296/3/3 295/3/3 294/3/3
f 297/3/3 295/3/3 296/3/3
f 300/3/3 299/3/3 298/3/3
f 301/3/3 299/3/3 300/3/3
f 302/5/4 303/5/4 304/5/4
f 304/5/4 303/5/4 305/5/4
f 306/5/4 307/5/4 308/5/4
f 308/5/4 307/5/4 309/5/4
f 310/2/4 311/2/4 312/2/4
f 312/2/4 311/2/4 313/2/4
f 313/2/4 314/2/4 315/2/4
f 315/2/4 314/2/4 316/2/4
f 316/2/4 317/2/4 318/2/4
f 318/2/4 317/2/4 319/2/4
f 320/1/4 321/1/4 323/1/4
f 323/1/4 321/1/4 324/1/4
f 322/1/4 323/1/4 325/1/4
f 325/1/4 323/1/4 326/1/4
f 327/2/4 328/2/4 329/2/4
f 329/2/4 328/2/4 330/2/4
f 331/1/4 332/1/4 333/1/4
f 333/1/4 332/1/4 334/1/4
f 335/2/4 336/2/4 337/2/4
f 337/2/4 336/2/4 338/2/4
f 339/2/4 340/2/4 341/2/4
f 341/2/4 340/2/4 342/2/4
f 343/2/4 344/2/4 345/2/4
f 345/2/4 344/2/4 346/2/4
f 347/2/4 348/2/4 349/2/4
f 349/2/4 348/2/4 350/2/4
f 351/1/4 352/1/4 353/1/4
f 353/1/4 352/1/4 354/1/4
f 354/1/4 355/1/4 356/1/4
f 356/1/4 355/1/4 357/1/4
f 358/2/4 359/2/4 360/2/4
f 360/2/4 359/2/4 361/2/4
f 362/2/4 363/2/4 364/2/4
f 364/2/4 363/2/4 365/2/4
f 366/2/4 367/2/4 368/2/4
f 368/2/4 367/2/4 369/2/4
f 369/2/4 370/2/4 371/2/4
f 371/2/4 370/2/4 372/2/4
f 373/4/4 374/4/4 376/4/4
f 376/4/4 374/4/4 377/4/4
f 375/4/4 376/4/4 379/4/4
f 379/4/4 376/4/4 380/4/4
f 378/4/4 379/4/4 381/4/4
f 381/4/4 379/4/4 382/4/4
f 383/2/4 384/2/4 385/2/4
f 385/2/4 384/2/4 386/2/4
f 387/2/4 388/2/4 389/2/4
f 389/2/4 388/2/4 390/2/4
f 391/2/4 392/2/4 393/2/4
f 393/2/4 392/2/4 394/2/4
f 395/3/4 396/3/4 397/3/4
f 397/3/4 396/3/4 398/3/4
f 399/3/4 400/3/4 401/3/4
f 401/3/4 400/3/4 402/3/4
f 405/5/5 404/5/5 403/5/5
f 406/5/5 404/5/5 405/5/5
f 409/2/5 408/2/5 407/2/5
f 410/2/5 408/2/5 409/2/5
f 413/1/5 412/1/5 411/1/5
f 414/1/5 412/1/5 413/1/5
f 421/2/5 416/2/5 415/2/5
f 422/2/5 416/2/5 421/2/5
f 423/2/5 418/2/5 417/2/5
f 424/2/5 418/2/5 423/2/5
f 425/1/5 420/1/5 419/1/5
f 426/1/5 420/1/5 425/1/5
f 429/2/5 428/2/5 427/2/5
f 430/2/5 428/2/5 429/2/5
f 435/2/5 432/2/5 431/2/5
f 436/2/5 432/2/5 435/2/5
f 437/4/5 434/4/5 433/4/5
f 438/4/5 434/4/5 437/4/5
f 443/2/5 440/2/5 439/2/5
f 444/2/5 440/2/5 443/2/5
f 445/3/5 442/3/5 441/3/5
f 446/3/5 442/3/5 445/3/5
f 449/1/5 448/1/5 447/1/5
f 450/1/5 448/1/5 449/1/5
f 455/2/5 452/2/5 451/2/5
f 456/2/5 452/2/5 455/2/5
f 457/2/5 454/2/5 453/2/5
f 458/2/5 454/2/5 457/2/5
f 461/5/5 460/5/5 459/5/5
f 462/5/5 460/5/5 461/5/5
f 465/1/5 464/1/5 463/1/5
f 466/1/5 464/1/5 465/1/5
f 469/2/5 468/2/5 467/2/5
f 470/2/5 468/2/5 469/2/5
f 473/2/5 472/2/5 471/2/5
f 474/2/5 472/2/5 473/2/5
f 477/1/5 476/1/5 475/1/5
f 478/1/5 476/1/5 477/1/5
f 481/4/5 480/4/5 479/4/5
f 482/4/5 480/4/5 481/4/5
f 485/3/5 484/3/5 483/3/5
f 486/3/5 484/3/5 485/3/5
f 489/2/5 488/2/5 487/2/5
f 490/2/5 488/2/5 489/2/5
f 493/2/5 492/2/5 491/2/5
f 494/2/5 492/2/5 493/2/5
f 497/2/5 496/2/5 495/2/5
f 498/2/5 496/2/5 497/2/5
f 501/2/5 500/2/5 499/2/5
f 502/2/5 500/2/5 501/2/5
f 505/4/5 504/4/5 503/4/5
f 506/4/5 504/4/5 505/4/5
f 509/2/5 508/2/5 507/2/5
f 510/2/5 508/2/5 509/2/5
f 511/1/6 512/1/6 513/1/6
f 513/1/6 512/1/6 514/1/6
f 515/2/6 516/2/6 519/2/6
f 519/2/6 516/2/6 520/2/6
f 517/2/6 518/2/6 521/2/6
f 521/2/6 518/2/6 522/2/6
f 523/5/6 524/5/6 525/5/6
f 525/5/6 524/5/6 526/5/6
f 527/1/6 528/1/6 529/1/6
f 529/1/6 528/1/6 530/1/6
f 531/2/6 532/2/6 533/2/6
f 533/2/6 532/2/6 534/2/6
f 535/2/6 536/2/6 537/2/6
f 537/2/6 536/2/6 538/2/6
f 539/1/6 540/1/6 541/1/6
f 541/1/6 540/1/6 542/1/6
f 543/4/6 544/4/6 545/4/6
f 545/4/6 544/4/6 546/4/6
f 547/3/6 548/3/6 549/3/6
f 549/3/6 548/3/6 550/3/6
f 551/2/6 552/2/6 553/2/6
f 553/2/6 552/2/6 554/2/6
f 555/2/6 556/2/6 559/2/6
f 559/2/6 556/2/6 560/2/6
f 557/2/6 558/2/6 561/2/6
f 561/2/6 558/2/6 562/2/6
f 563/1/6 564/1/6 565/1/6
f 565/1/6 564/1/6 566/1/6
f 567/2/6 568/2/6 569/2/6
f 569/2/6 568/2/6 570/2/6
f 571/2/6 572/2/6 573/2/6
f 573/2/6 572/2/6 574/2/6
f 575/5/6 576/5/6 577/5/6
f 577/5/6 576/5/6 578/5/6
f 579/1/6 580/1/6 581/1/6
f 581/1/6 580/1/6 582/1/6
f 583/2/6 584/2/6 585/2/6
f 585/2/6 584/2/6 586/2/6
f 587/2/6 588/2/6 589/2/6
f 589/2/6 588/2/6 590/2/6
f 591/2/6 592/2/6 593/2/6
f 593/2/6 592/2/6 594/2/6
f 595/2/6 596/2/6 597/2/6
f 597/2/6 596/2/6 598/2/6
f 599/4/6 600/4/6 601/4/6
f 601/4/6 600/4/6 602/4/6
f 603/3/6 604/3/6 605/3/6
f 605/3/6 604/3/6 606/3/6
f 607/2/6 608/2/6 609/2/6
f 609/2/6 608/2/6 610/2/6
f 611/4/6 612/4/6 613/4/6
f 613/4/6 612/4/6 614/4/6
f 615/2/6 616/2/6 617/2/6
f 617/2/6 616/2/6 618/2/6
