# MagicaVoxel @ Ephtracy

# group
o 

# material
mtllib tree_small_2.mtl
usemtl palette

# normals
vn -1 0 0
vn 1 0 0
vn 0 0 1
vn 0 0 -1
vn 0 -1 0
vn 0 1 0

# texcoords
vt 0.369141 0.5
vt 0.373047 0.5
vt 0.900391 0.5
vt 0.904297 0.5

# verts
v -0.8 1.1 -7.45058e-08
v -0.8 1.1 -0.7
v -0.8 1.4 0.0999999
v -0.8 1.4 -7.45058e-08
v -0.8 1.4 -0.6
v -0.8 1.4 -0.7
v -0.8 1.5 0.0999999
v -0.8 1.5 -0.6
v -0.7 0.9 0.0999999
v -0.7 0.9 -0.6
v -0.7 1.1 0.0999999
v -0.7 1.1 -7.45058e-08
v -0.7 1.1 -0.6
v -0.7 1.6 -7.45058e-08
v -0.7 1.6 -0.5
v -0.7 1.7 -7.45058e-08
v -0.7 1.7 -0.5
v -0.6 0.7 -0.1
v -0.6 0.7 -0.5
v -0.6 0.9 -0.1
v -0.6 0.9 -0.5
v -0.6 1.5 -0.1
v -0.6 1.5 -0.4
v -0.6 1.6 -0.1
v -0.6 1.6 -0.4
v -0.6 1.7 -0.1
v -0.6 1.7 -0.4
v -0.6 1.8 -0.1
v -0.6 1.8 -0.4
v -0.5 0 -0.2
v -0.5 0 -0.4
v -0.5 0.2 -0.2
v -0.5 0.2 -0.4
v -0.5 0.4 -0.2
v -0.5 0.4 -0.4
v -0.5 0.6 -0.2
v -0.5 0.6 -0.4
v -0.5 0.7 -0.2
v -0.5 0.7 -0.4
v -0.3 0 -0.2
v -0.3 0 -0.4
v -0.3 0.2 -0.2
v -0.3 0.2 -0.4
v -0.3 0.4 -0.2
v -0.3 0.4 -0.4
v -0.3 0.6 -0.2
v -0.3 0.6 -0.4
v -0.3 0.7 -0.2
v -0.3 0.7 -0.4
v -0.3 1.5 -0.1
v -0.3 1.5 -0.4
v -0.3 1.6 -0.1
v -0.3 1.6 -0.4
v -0.3 1.7 -0.1
v -0.3 1.7 -0.4
v -0.3 1.8 -0.1
v -0.3 1.8 -0.4
v -0.2 0.7 -0.1
v -0.2 0.7 -0.5
v -0.2 0.9 -0.1
v -0.2 0.9 -0.5
v -0.2 1.6 -7.45058e-08
v -0.2 1.6 -0.5
v -0.2 1.7 -7.45058e-08
v -0.2 1.7 -0.5
v -0.1 0.9 0.0999999
v -0.1 0.9 -0.6
v -0.1 1.1 0.0999999
v -0.1 1.1 -7.45058e-08
v -0.1 1.1 -0.6
v 5.96046e-08 1.1 -7.45058e-08
v 5.96046e-08 1.1 -0.7
v 5.96046e-08 1.4 0.0999999
v 5.96046e-08 1.4 -7.45058e-08
v 5.96046e-08 1.4 -0.6
v 5.96046e-08 1.4 -0.7
v 5.96046e-08 1.5 0.0999999
v 5.96046e-08 1.5 -0.6
v -0.8 1.4 0.0999999
v -0.8 1.5 0.0999999
v -0.7 0.9 0.0999999
v -0.7 1.1 0.0999999
v -0.1 0.9 0.0999999
v -0.1 1.1 0.0999999
v 5.96046e-08 1.4 0.0999999
v 5.96046e-08 1.5 0.0999999
v -0.8 1.1 -7.45058e-08
v -0.8 1.4 -7.45058e-08
v -0.7 1.1 -7.45058e-08
v -0.7 1.6 -7.45058e-08
v -0.7 1.7 -7.45058e-08
v -0.2 1.6 -7.45058e-08
v -0.2 1.7 -7.45058e-08
v -0.1 1.1 -7.45058e-08
v 5.96046e-08 1.1 -7.45058e-08
v 5.96046e-08 1.4 -7.45058e-08
v -0.6 0.7 -0.1
v -0.6 0.9 -0.1
v -0.6 1.5 -0.1
v -0.6 1.6 -0.1
v -0.6 1.7 -0.1
v -0.6 1.8 -0.1
v -0.3 1.5 -0.1
v -0.3 1.6 -0.1
v -0.3 1.7 -0.1
v -0.3 1.8 -0.1
v -0.2 0.7 -0.1
v -0.2 0.9 -0.1
v -0.5 0 -0.2
v -0.5 0.2 -0.2
v -0.5 0.4 -0.2
v -0.5 0.6 -0.2
v -0.5 0.7 -0.2
v -0.3 0 -0.2
v -0.3 0.2 -0.2
v -0.3 0.4 -0.2
v -0.3 0.6 -0.2
v -0.3 0.7 -0.2
v -0.6 1.5 -0.4
v -0.6 1.6 -0.4
v -0.6 1.7 -0.4
v -0.6 1.8 -0.4
v -0.5 0 -0.4
v -0.5 0.2 -0.4
v -0.5 0.4 -0.4
v -0.5 0.6 -0.4
v -0.5 0.7 -0.4
v -0.3 0 -0.4
v -0.3 0.2 -0.4
v -0.3 0.4 -0.4
v -0.3 0.6 -0.4
v -0.3 0.7 -0.4
v -0.3 1.5 -0.4
v -0.3 1.6 -0.4
v -0.3 1.7 -0.4
v -0.3 1.8 -0.4
v -0.7 1.6 -0.5
v -0.7 1.7 -0.5
v -0.6 0.7 -0.5
v -0.6 0.9 -0.5
v -0.2 0.7 -0.5
v -0.2 0.9 -0.5
v -0.2 1.6 -0.5
v -0.2 1.7 -0.5
v -0.8 1.4 -0.6
v -0.8 1.5 -0.6
v -0.7 0.9 -0.6
v -0.7 1.1 -0.6
v -0.1 0.9 -0.6
v -0.1 1.1 -0.6
v 5.96046e-08 1.4 -0.6
v 5.96046e-08 1.5 -0.6
v -0.8 1.1 -0.7
v -0.8 1.4 -0.7
v 5.96046e-08 1.1 -0.7
v 5.96046e-08 1.4 -0.7
v -0.5 0 -0.2
v -0.3 0 -0.2
v -0.5 0 -0.4
v -0.3 0 -0.4
v -0.6 0.7 -0.1
v -0.2 0.7 -0.1
v -0.5 0.7 -0.2
v -0.3 0.7 -0.2
v -0.5 0.7 -0.4
v -0.3 0.7 -0.4
v -0.6 0.7 -0.5
v -0.2 0.7 -0.5
v -0.7 0.9 0.0999999
v -0.1 0.9 0.0999999
v -0.6 0.9 -0.1
v -0.2 0.9 -0.1
v -0.6 0.9 -0.5
v -0.2 0.9 -0.5
v -0.7 0.9 -0.6
v -0.1 0.9 -0.6
v -0.8 1.1 -7.45058e-08
v -0.7 1.1 -7.45058e-08
v -0.1 1.1 -7.45058e-08
v 5.96046e-08 1.1 -7.45058e-08
v -0.7 1.1 -0.6
v -0.1 1.1 -0.6
v -0.8 1.1 -0.7
v 5.96046e-08 1.1 -0.7
v -0.8 1.4 0.0999999
v 5.96046e-08 1.4 0.0999999
v -0.8 1.4 -7.45058e-08
v 5.96046e-08 1.4 -7.45058e-08
v -0.7 1.6 -7.45058e-08
v -0.2 1.6 -7.45058e-08
v -0.6 1.6 -0.1
v -0.3 1.6 -0.1
v -0.6 1.6 -0.4
v -0.3 1.6 -0.4
v -0.7 1.6 -0.5
v -0.2 1.6 -0.5
v -0.7 1.1 0.0999999
v -0.1 1.1 0.0999999
v -0.7 1.1 -7.45058e-08
v -0.1 1.1 -7.45058e-08
v -0.8 1.4 -0.6
v 5.96046e-08 1.4 -0.6
v -0.8 1.4 -0.7
v 5.96046e-08 1.4 -0.7
v -0.8 1.5 0.0999999
v 5.96046e-08 1.5 0.0999999
v -0.6 1.5 -0.1
v -0.3 1.5 -0.1
v -0.6 1.5 -0.4
v -0.3 1.5 -0.4
v -0.8 1.5 -0.6
v 5.96046e-08 1.5 -0.6
v -0.7 1.7 -7.45058e-08
v -0.2 1.7 -7.45058e-08
v -0.6 1.7 -0.1
v -0.3 1.7 -0.1
v -0.6 1.7 -0.4
v -0.3 1.7 -0.4
v -0.7 1.7 -0.5
v -0.2 1.7 -0.5
v -0.6 1.8 -0.1
v -0.3 1.8 -0.1
v -0.6 1.8 -0.4
v -0.3 1.8 -0.4

# faces
f 4/4/1 2/4/1 1/4/1
f 5/4/1 2/4/1 4/4/1
f 6/4/1 2/4/1 5/4/1
f 7/3/1 4/3/1 3/3/1
f 7/3/1 5/3/1 4/3/1
f 8/3/1 5/3/1 7/3/1
f 11/3/1 10/3/1 9/3/1
f 12/3/1 10/3/1 11/3/1
f 13/3/1 10/3/1 12/3/1
f 16/3/1 15/3/1 14/3/1
f 17/3/1 15/3/1 16/3/1
f 20/4/1 19/4/1 18/4/1
f 21/4/1 19/4/1 20/4/1
f 24/4/1 23/4/1 22/4/1
f 25/4/1 23/4/1 24/4/1
f 28/3/1 27/3/1 26/3/1
f 29/3/1 27/3/1 28/3/1
f 32/1/1 31/1/1 30/1/1
f 33/1/1 31/1/1 32/1/1
f 34/2/1 33/2/1 32/2/1
f 35/2/1 33/2/1 34/2/1
f 36/1/1 35/1/1 34/1/1
f 37/1/1 35/1/1 36/1/1
f 38/2/1 37/2/1 36/2/1
f 39/2/1 37/2/1 38/2/1
f 40/1/2 41/1/2 42/1/2
f 42/1/2 41/1/2 43/1/2
f 42/2/2 43/2/2 44/2/2
f 44/2/2 43/2/2 45/2/2
f 44/1/2 45/1/2 46/1/2
f 46/1/2 45/1/2 47/1/2
f 46/2/2 47/2/2 48/2/2
f 48/2/2 47/2/2 49/2/2
f 50/4/2 51/4/2 52/4/2
f 52/4/2 51/4/2 53/4/2
f 54/3/2 55/3/2 56/3/2
f 56/3/2 55/3/2 57/3/2
f 58/4/2 59/4/2 60/4/2
f 60/4/2 59/4/2 61/4/2
f 62/3/2 63/3/2 64/3/2
f 64/3/2 63/3/2 65/3/2
f 66/3/2 67/3/2 68/3/2
f 68/3/2 67/3/2 69/3/2
f 69/3/2 67/3/2 70/3/2
f 71/4/2 72/4/2 74/4/2
f 74/4/2 72/4/2 75/4/2
f 75/4/2 72/4/2 76/4/2
f 73/3/2 74/3/2 77/3/2
f 74/3/2 75/3/2 77/3/2
f 77/3/2 75/3/2 78/3/2
f 83/3/3 82/3/3 81/3/3
f 84/3/3 82/3/3 83/3/3
f 85/3/3 80/3/3 79/3/3
f 86/3/3 80/3/3 85/3/3
f 89/4/3 88/4/3 87/4/3
f 92/3/3 91/3/3 90/3/3
f 93/3/3 91/3/3 92/3/3
f 94/4/3 88/4/3 89/4/3
f 95/4/3 88/4/3 94/4/3
f 96/4/3 88/4/3 95/4/3
f 103/4/3 100/4/3 99/4/3
f 104/4/3 100/4/3 103/4/3
f 105/3/3 102/3/3 101/3/3
f 106/3/3 102/3/3 105/3/3
f 107/4/3 98/4/3 97/4/3
f 108/4/3 98/4/3 107/4/3
f 114/1/3 110/1/3 109/1/3
f 115/2/3 111/2/3 110/2/3
f 115/1/3 110/1/3 114/1/3
f 116/1/3 112/1/3 111/1/3
f 116/2/3 111/2/3 115/2/3
f 117/2/3 113/2/3 112/2/3
f 117/1/3 112/1/3 116/1/3
f 118/2/3 113/2/3 117/2/3
f 123/1/4 124/1/4 128/1/4
f 124/2/4 125/2/4 129/2/4
f 128/1/4 124/1/4 129/1/4
f 125/1/4 126/1/4 130/1/4
f 129/2/4 125/2/4 130/2/4
f 126/2/4 127/2/4 131/2/4
f 130/1/4 126/1/4 131/1/4
f 131/2/4 127/2/4 132/2/4
f 119/4/4 120/4/4 133/4/4
f 133/4/4 120/4/4 134/4/4
f 121/3/4 122/3/4 135/3/4
f 135/3/4 122/3/4 136/3/4
f 139/4/4 140/4/4 141/4/4
f 141/4/4 140/4/4 142/4/4
f 137/3/4 138/3/4 143/3/4
f 143/3/4 138/3/4 144/3/4
f 147/3/4 148/3/4 149/3/4
f 149/3/4 148/3/4 150/3/4
f 145/3/4 146/3/4 151/3/4
f 151/3/4 146/3/4 152/3/4
f 153/4/4 154/4/4 155/4/4
f 155/4/4 154/4/4 156/4/4
f 159/1/5 158/1/5 157/1/5
f 160/1/5 158/1/5 159/1/5
f 163/4/5 162/4/5 161/4/5
f 164/4/5 162/4/5 163/4/5
f 165/4/5 163/4/5 161/4/5
f 166/4/5 162/4/5 164/4/5
f 167/4/5 165/4/5 161/4/5
f 167/4/5 166/4/5 165/4/5
f 168/4/5 162/4/5 166/4/5
f 168/4/5 166/4/5 167/4/5
f 171/3/5 170/3/5 169/3/5
f 172/3/5 170/3/5 171/3/5
f 173/3/5 171/3/5 169/3/5
f 174/3/5 170/3/5 172/3/5
f 175/3/5 173/3/5 169/3/5
f 175/3/5 174/3/5 173/3/5
f 176/3/5 170/3/5 174/3/5
f 176/3/5 174/3/5 175/3/5
f 181/4/5 178/4/5 177/4/5
f 182/4/5 180/4/5 179/4/5
f 183/4/5 181/4/5 177/4/5
f 183/4/5 182/4/5 181/4/5
f 184/4/5 180/4/5 182/4/5
f 184/4/5 182/4/5 183/4/5
f 187/3/5 186/3/5 185/3/5
f 188/3/5 186/3/5 187/3/5
f 191/3/5 190/3/5 189/3/5
f 192/3/5 190/3/5 191/3/5
f 193/3/5 191/3/5 189/3/5
f 194/3/5 190/3/5 192/3/5
f 195/3/5 193/3/5 189/3/5
f 195/3/5 194/3/5 193/3/5
f 196/3/5 190/3/5 194/3/5
f 196/3/5 194/3/5 195/3/5
f 197/3/6 198/3/6 199/3/6
f 199/3/6 198/3/6 200/3/6
f 201/4/6 202/4/6 203/4/6
f 203/4/6 202/4/6 204/4/6
f 205/3/6 206/3/6 207/3/6
f 207/3/6 206/3/6 208/3/6
f 205/3/6 207/3/6 209/3/6
f 208/3/6 206/3/6 210/3/6
f 205/3/6 209/3/6 211/3/6
f 209/3/6 210/3/6 211/3/6
f 210/3/6 206/3/6 212/3/6
f 211/3/6 210/3/6 212/3/6
f 213/3/6 214/3/6 215/3/6
f 215/3/6 214/3/6 216/3/6
f 213/3/6 215/3/6 217/3/6
f 216/3/6 214/3/6 218/3/6
f 213/3/6 217/3/6 219/3/6
f 217/3/6 218/3/6 219/3/6
f 218/3/6 214/3/6 220/3/6
f 219/3/6 218/3/6 220/3/6
f 221/3/6 222/3/6 223/3/6
f 223/3/6 222/3/6 224/3/6
